<svg xmlns="http://www.w3.org/2000/svg" version="1.1" viewBox="267.2 247.45 534.33 544.49">
<path d="M0 0 C1.41579442 -0.00462307 2.83158401 -0.01098532 4.24736381 -0.01890898 C8.09170916 -0.03543204 11.93565155 -0.02743486 15.77999735 -0.0149641 C19.94360841 -0.00584557 24.10715423 -0.01991654 28.27075195 -0.03088379 C36.40789216 -0.04859971 44.54488416 -0.04486063 52.68202999 -0.03323323 C59.29724606 -0.02417425 65.9124208 -0.02298552 72.5276413 -0.02732849 C73.47160654 -0.02794142 74.41557178 -0.02855436 75.38814203 -0.02918586 C77.30614999 -0.03046484 79.22415794 -0.0317617 81.14216587 -0.03307623 C99.0938037 -0.04446107 117.04535959 -0.03139998 134.99698398 -0.00987476 C150.38554247 0.00800595 165.77398029 0.00488003 181.16253662 -0.0135498 C199.05916826 -0.03497353 216.95572831 -0.04337485 234.85237098 -0.03110075 C236.76182793 -0.02982662 238.6712849 -0.02856914 240.58074188 -0.02732849 C241.52009494 -0.02671139 242.45944801 -0.02609429 243.42726631 -0.02545848 C250.03319601 -0.02201096 256.63908011 -0.02782078 263.24500275 -0.0372467 C271.29699688 -0.04848425 279.34883511 -0.04538929 287.40081146 -0.02412373 C291.5055558 -0.0136387 295.61004052 -0.00944793 299.71478271 -0.02272034 C303.47746751 -0.03470251 307.23965377 -0.02798692 311.0022938 -0.00681013 C312.99666051 -0.00027648 314.99106226 -0.01322754 316.98539186 -0.02703905 C328.06956339 0.06899212 338.19866176 2.50871937 346.28656006 10.50793457 C353.91113599 19.84804009 355.73445199 28.38826951 355.67424011 40.18925476 C355.68231842 42.0907265 355.68231842 42.0907265 355.69055992 44.03061181 C355.70497492 47.53340291 355.70078224 51.03595793 355.69339311 54.53876173 C355.68865375 58.32284015 355.70117828 62.10686806 355.71141052 65.89093018 C355.72859058 73.29908324 355.72943995 80.70715146 355.72419762 88.11531927 C355.72015213 94.14000687 355.72160399 100.16466944 355.72694588 106.18935585 C355.7276943 107.04765588 355.72844272 107.90595591 355.72921382 108.79026503 C355.73074535 110.53408525 355.7322837 112.27790548 355.73382879 114.02172569 C355.74755172 130.36958656 355.74211828 146.71739955 355.73064358 163.06525932 C355.72071805 178.00339197 355.73364045 192.94140065 355.75757777 207.87951418 C355.78199493 223.23332159 355.7915698 238.58707133 355.78492504 253.94089776 C355.78143778 262.55464647 355.78363192 271.16829993 355.80117607 279.78203392 C355.81593108 287.11718684 355.81649089 294.45217747 355.79910516 301.78732731 C355.79061857 305.52571194 355.78838755 309.26380709 355.80375671 313.00217628 C355.82025438 317.06558192 355.80539733 321.12829527 355.7877655 325.19169617 C355.79737051 326.35845719 355.80697552 327.52521821 355.81687158 328.72733563 C355.54953945 358.80706014 333.99054838 378.15683296 314.19500732 397.86022949 C311.68979359 400.35387467 309.19390487 402.85663413 306.70040035 405.36198139 C304.30556359 407.76573906 301.90318681 410.1618984 299.50140381 412.55871582 C298.60566147 413.45850662 297.70991913 414.35829742 296.78703308 415.28535461 C295.54917809 416.51375313 295.54917809 416.51375313 294.28631592 417.76696777 C293.19690956 418.85398735 293.19690956 418.85398735 292.085495 419.96296692 C290.28656006 421.50793457 290.28656006 421.50793457 288.28656006 421.50793457 C287.94624756 422.37418457 287.94624756 422.37418457 287.59906006 423.25793457 C285.94872528 426.08707991 283.85397429 427.49068053 281.28656006 429.50793457 C280.56468506 430.41543457 279.84281006 431.32293457 279.09906006 432.25793457 C278.50093506 433.00043457 277.90281006 433.74293457 277.28656006 434.50793457 C276.62656006 434.50793457 275.96656006 434.50793457 275.28656006 434.50793457 C275.28656006 435.16793457 275.28656006 435.82793457 275.28656006 436.50793457 C274.62656006 436.50793457 273.96656006 436.50793457 273.28656006 436.50793457 C272.95656006 437.49793457 272.62656006 438.48793457 272.28656006 439.50793457 C271.62656006 439.50793457 270.96656006 439.50793457 270.28656006 439.50793457 C270.28656006 440.16793457 270.28656006 440.82793457 270.28656006 441.50793457 C267.81882861 444.05635479 265.01843724 446.24897058 262.28656006 448.50793457 C261.61238037 449.08027832 260.93820068 449.65262207 260.24359131 450.24230957 C239.35920222 467.32597494 216.25013318 471.48988195 189.93499756 471.85949707 C188.42318036 471.88313415 186.91136501 471.90689033 185.39955139 471.93075562 C181.33236281 471.99294938 177.26510775 472.04779417 173.19778061 472.10006714 C170.65204705 472.13305785 168.10634402 472.16792604 165.56063843 472.20300293 C137.36693875 472.58318054 109.19848288 472.43506325 81.00826359 471.8715992 C78.06580718 471.81328113 75.12328003 471.75905056 72.18074608 471.70480728 C70.20795526 471.66609164 68.23532265 471.61954909 66.26271057 471.57260132 C54.25390062 471.34248702 41.95027056 471.40405802 30.22406006 474.25793457 C29.56341553 474.40230957 28.902771 474.54668457 28.22210693 474.69543457 C14.91940574 477.77005703 2.59678648 482.93483723 -9.71343994 488.69543457 C-11.23376387 489.39955267 -12.75444439 490.10290124 -14.27545166 490.80554199 C-17.46991559 492.2826477 -20.66228971 493.76413929 -23.85308838 495.24914551 C-28.63715589 497.47461111 -33.42825566 499.68459057 -38.22125244 501.89074707 C-51.75918284 508.12448052 -65.28779402 514.37802999 -78.80328369 520.66027832 C-80.65532125 521.52057696 -82.50737193 522.38084738 -84.35943604 523.24108887 C-87.86998732 524.8716897 -91.37925223 526.50501453 -94.88775635 528.14001465 C-134.67502118 546.65243778 -134.67502118 546.65243778 -151.71343994 541.50793457 C-159.78951151 538.30331496 -166.24477979 533.25936686 -171.71343994 526.50793457 C-171.71343994 525.84793457 -171.71343994 525.18793457 -171.71343994 524.50793457 C-172.37343994 524.50793457 -173.03343994 524.50793457 -173.71343994 524.50793457 C-174.20843994 523.02293457 -174.20843994 523.02293457 -174.71343994 521.50793457 C-175.37343994 520.84793457 -176.03343994 520.18793457 -176.71343994 519.50793457 C-179.54985675 506.16101768 -179.22018643 494.32235543 -171.71343994 482.50793457 C-166.27988801 475.93747943 -160.23462448 469.88270031 -154.20368958 463.86447144 C-153.39703462 463.05555092 -152.59037967 462.24663041 -151.75928062 461.41319716 C-149.08562699 458.73326915 -146.40846932 456.05687093 -143.73126221 453.38049316 C-141.80170054 451.44847652 -139.87287016 449.51573034 -137.94398499 447.58303833 C-133.26840222 442.89919586 -128.59008917 438.21808996 -123.91065479 433.53809576 C-120.10964046 429.73660475 -116.30941993 425.93432201 -112.50974846 422.1314888 C-101.72917937 411.34213187 -90.94653562 400.55485454 -80.16119576 389.77026658 C-79.5813587 389.19046948 -79.00152165 388.61067237 -78.40411377 388.01330566 C-77.82356741 387.43280018 -77.24302105 386.8522947 -76.64488237 386.25419815 C-67.20805845 376.81778187 -57.77625032 367.37636963 -48.34666599 357.93271951 C-38.65689319 348.22860691 -28.96342131 338.52820309 -19.26604313 328.83169043 C-13.82439978 323.39037951 -8.38431719 317.94752871 -2.94821358 312.50068283 C1.67222608 307.87117051 6.29606999 303.24509283 10.92445516 298.62352352 C13.28675026 296.26450789 15.64681124 293.90336458 18.00369263 291.5389328 C20.55312758 288.98185638 23.10856194 286.43093569 25.66569519 283.88156128 C26.4163563 283.12575661 27.1670174 282.36995194 27.94042581 281.5912441 C28.62160315 280.91466556 29.30278049 280.23808701 30.00459957 279.54100609 C30.88924465 278.65603496 30.88924465 278.65603496 31.79176134 277.75318563 C33.28656006 276.50793457 33.28656006 276.50793457 35.28656006 276.50793457 C35.49281006 275.97168457 35.69906006 275.43543457 35.91156006 274.88293457 C37.81906432 271.58815448 40.3347539 268.91429829 43.28656006 266.50793457 C43.94656006 266.50793457 44.60656006 266.50793457 45.28656006 266.50793457 C45.94656006 265.18793457 46.60656006 263.86793457 47.28656006 262.50793457 C47.94656006 262.50793457 48.60656006 262.50793457 49.28656006 262.50793457 C49.54630615 261.91094254 49.80605225 261.3139505 50.07366943 260.6988678 C51.38090326 258.33751553 52.61312872 257.15225434 54.69281006 255.45300293 C63.26524817 248.18808809 71.12518544 240.08097994 79.11003113 232.18109226 C81.99232068 229.32949568 84.88207786 226.48647977 87.79095459 223.6619873 C90.62548115 220.90941686 93.43987316 218.13768973 96.2411499 215.35130119 C97.30602487 214.29864501 98.37775764 213.25287768 99.45648193 212.21441841 C106.26559449 206.187322 106.26559449 206.187322 109.12640381 197.99206543 C108.28528681 194.50265243 108.00593316 193.60526758 105.28656006 191.50793457 C102.21751941 191.21580553 99.35163997 191.10961211 96.28158569 191.13612366 C94.88267375 191.13038681 94.88267375 191.13038681 93.45550096 191.12453407 C90.31651757 191.11521564 87.17797142 191.12726189 84.03900146 191.13903809 C81.79366879 191.13657121 79.54833725 191.13273395 77.30300903 191.12762451 C72.4591858 191.11927068 67.61548006 191.12010782 62.77165604 191.12780952 C55.10586341 191.13937493 47.44022241 191.12724273 39.77444458 191.1111908 C29.01887396 191.09073471 18.26333907 191.0778805 7.50775146 191.07409668 C6.82501661 191.07385181 6.14228175 191.07360694 5.43885796 191.07335465 C-2.16622962 191.07081256 -9.77131592 191.07023984 -17.37640381 191.07128906 C-20.12790934 191.07162204 -22.87941487 191.07190746 -25.63092041 191.07214355 C-26.64922627 191.07223774 -26.64922627 191.07223774 -27.68810396 191.07233382 C-39.03701548 191.07294016 -50.38583535 191.05779605 -61.73472083 191.0313105 C-69.34729177 191.01454721 -76.95956133 191.01628631 -84.57213092 191.03213322 C-89.32333894 191.03794991 -94.07440563 191.02715364 -98.82558823 191.0118866 C-101.01965773 191.00817489 -103.21375139 191.01122611 -105.40779877 191.02175713 C-122.77768544 191.09953201 -136.70437574 189.93553411 -149.93218994 177.40637207 C-159.3672699 167.44320928 -162.20751713 157.51764484 -161.99078369 144.10559082 C-161.24197059 125.80996323 -146.03362382 112.66643837 -133.9241333 100.5892334 C-133.09686234 99.76021011 -132.26959137 98.93118683 -131.41725159 98.07704163 C-128.71508434 95.3705166 -126.00932733 92.66761472 -123.30328369 89.96496582 C-121.40702454 88.06803202 -119.51091363 86.17095095 -117.61494446 84.27372742 C-113.65534749 80.31232062 -109.69366837 76.35300536 -105.73077393 72.39489746 C-101.16807831 67.8376497 -96.60900605 63.27680093 -92.0517835 58.71408063 C-88.11535554 54.77309657 -84.17695968 50.83408708 -80.23694903 46.89668483 C-77.89394786 44.55523177 -75.55180296 42.21293508 -73.2110424 39.86924171 C-70.60089826 37.25654407 -67.98754594 34.64709692 -65.37335205 32.03845215 C-64.61209015 31.27516602 -63.85082825 30.51187988 -63.0664978 29.72546387 C-44.6601836 11.39107592 -26.68615216 -0.18610079 0 0 Z " fill="#0B0C0C" transform="translate(445.71343994140625,247.4920654296875)"/>
<path d="M0 0 C0.33 0 0.66 0 1 0 C2.0529595 32.98855129 2.17919979 65.9711137 2.20018864 98.97342443 C2.20299565 103.35086652 2.20723823 107.72830655 2.21169281 112.10574722 C2.223809 124.28695726 2.23414248 136.46816573 2.2375679 148.64938164 C2.23778747 149.41903921 2.23800703 150.18869678 2.23823325 150.9816773 C2.23845153 151.75274993 2.23866981 152.52382256 2.2388947 153.31826103 C2.23933812 154.87981725 2.23978468 156.44137347 2.24023438 158.00292969 C2.2404558 158.77745134 2.24067723 159.55197299 2.24090537 160.34996499 C2.24488731 173.01004987 2.26247716 185.67007844 2.2855939 198.33014141 C2.30927217 211.4045696 2.32176708 224.47896925 2.32293582 237.55341923 C2.32385126 244.86520272 2.32957661 252.17691134 2.34775543 259.48867416 C2.36470247 266.32633297 2.36643709 273.16384655 2.35761642 280.00152016 C2.35684227 282.51266296 2.36123809 285.02381325 2.37107468 287.5349369 C2.38367416 290.94972454 2.37798419 294.36399505 2.36749268 297.77877808 C2.37554908 298.78095584 2.38360548 299.7831336 2.39190602 300.81568038 C2.38531618 301.7264355 2.37872633 302.63719061 2.3719368 303.57554436 C2.37283243 304.75712209 2.37283243 304.75712209 2.37374616 305.96257007 C2 308 2 308 -1 311 C-0.67 208.37 -0.34 105.74 0 0 Z " fill="#020303" transform="translate(799,278)"/>
<path d="M0 0 C-1.67488638 4.34886273 -4.90449578 7.19248753 -8.14453125 10.41015625 C-8.75133224 11.0188707 -9.35813324 11.62758514 -9.98332214 12.25474548 C-11.26612664 13.53890883 -12.55145176 14.82055851 -13.83911133 16.09985352 C-15.80197112 18.05202843 -17.75396748 20.01460597 -19.70507812 21.97851562 C-20.95508859 23.22720408 -22.20571954 24.47527178 -23.45703125 25.72265625 C-24.32760918 26.59930687 -24.32760918 26.59930687 -25.21577454 27.4936676 C-29.42400532 31.65398844 -33.71024521 34.36620434 -39 37 C-34.83690649 32.04439007 -30.51678047 27.34512233 -25.95703125 22.75390625 C-25.30675461 22.09792953 -24.65647797 21.44195282 -23.98649597 20.76609802 C-22.62397445 19.39420175 -21.26004956 18.02369794 -19.89477539 16.65454102 C-17.8008747 14.55082018 -15.71786709 12.43667354 -13.63476562 10.32226562 C-12.305345 8.98632455 -10.97528953 7.65101487 -9.64453125 6.31640625 C-9.02262405 5.68215225 -8.40071686 5.04789825 -7.75996399 4.39442444 C-3.3427239 0 -3.3427239 0 0 0 Z " fill="#171717" transform="translate(338,325)"/>
<path d="M0 0 C0.495 1.485 0.495 1.485 1 3 C-2 6 -5 9 -8 12 C-8.81210937 12.82242187 -9.62421875 13.64484375 -10.4609375 14.4921875 C-13.05512392 17.05444547 -15.72759905 19.49821329 -18.4375 21.9375 C-28.12071166 30.74278345 -37.65576381 39.89908251 -46 50 C-47.32 49.67 -48.64 49.34 -50 49 C-49.38125 48.7525 -48.7625 48.505 -48.125 48.25 C-45.87944142 47.1935939 -45.87944142 47.1935939 -45.09118652 45.12281799 C-43.84133766 42.69133483 -42.52187553 41.51263475 -40.41601562 39.78491211 C-35.82099653 35.89229778 -31.58552343 31.71252035 -27.34375 27.44140625 C-26.16214294 26.25767677 -26.16214294 26.25767677 -24.95666504 25.05003357 C-22.46872898 22.55654988 -19.98431376 20.05959216 -17.5 17.5625 C-15.8023159 15.85979413 -14.10440142 14.15731793 -12.40625 12.45507812 C-8.2681672 8.30603588 -4.13296065 4.15414424 0 0 Z " fill="#151514" transform="translate(541,463)"/>
<path d="M0 0 C0.67871094 1.78417969 0.67871094 1.78417969 1 4 C-0.12402344 5.73925781 -0.12402344 5.73925781 -1.859375 7.453125 C-2.48070312 8.071875 -3.10203125 8.690625 -3.7421875 9.328125 C-4.40476562 9.96234375 -5.06734375 10.5965625 -5.75 11.25 C-6.39710938 11.8996875 -7.04421875 12.549375 -7.7109375 13.21875 C-12.59263393 18 -12.59263393 18 -16 18 C-16 18.66 -16 19.32 -16 20 C-17.48672667 21.22241971 -18.97640542 22.44163761 -20.48828125 23.6328125 C-22.21488606 25.04744168 -22.21488606 25.04744168 -23.5 27.6875 C-25.51047271 30.78697876 -27.49796969 31.14394815 -31 32 C-25.19316781 24.88094773 -18.63714556 18.52625188 -12.125 12.0625 C-10.94768362 10.89020796 -9.77059826 9.71768386 -8.59375 8.54492188 C-5.73182511 5.69393018 -2.86678543 2.84610385 0 0 Z " fill="#121212" transform="translate(445,558)"/>
<path d="M0 0 C0 4.4084651 -1.34699927 6.27083451 -4.27734375 9.54296875 C-5.15519531 10.41566406 -6.03304688 11.28835938 -6.9375 12.1875 C-7.81277344 13.06792969 -8.68804687 13.94835937 -9.58984375 14.85546875 C-12 17 -12 17 -15 18 C-15.69937532 19.31647119 -16.36729133 20.65022151 -17 22 C-17.66 22.33 -18.32 22.66 -19 23 C-19.66 22.34 -20.32 21.68 -21 21 C-14.07 14.07 -7.14 7.14 0 0 Z " fill="#101010" transform="translate(383,277)"/>
<path d="M0 0 C0 3 0 3 -1.57299805 4.91357422 C-2.29527588 5.6201416 -3.01755371 6.32670898 -3.76171875 7.0546875 C-4.55126953 7.83457031 -5.34082031 8.61445312 -6.15429688 9.41796875 C-6.99025391 10.22878906 -7.82621094 11.03960938 -8.6875 11.875 C-9.50412109 12.67808594 -10.32074219 13.48117187 -11.16210938 14.30859375 C-12.74607903 15.86562951 -14.33282887 17.41984302 -15.92260742 18.97094727 C-18.30154747 21.29453062 -20.65462066 23.64257248 -23 26 C-23.96459274 26.9650947 -24.92944986 27.9299252 -25.89453125 28.89453125 C-26.61479492 29.61479492 -26.61479492 29.61479492 -27.34960938 30.34960938 C-29.56640625 32.56640625 -31.78320312 34.78320312 -34 37 C-34.66 36.67 -35.32 36.34 -36 36 C-24.12 24.12 -12.24 12.24 0 0 Z " fill="#232323" transform="translate(312,691)"/>
<path d="M0 0 C0 5.61341853 -4.26495366 9.51733049 -8.06640625 13.33984375 C-8.53949219 13.80519531 -9.01257813 14.27054687 -9.5 14.75 C-9.97308594 15.23082031 -10.44617188 15.71164062 -10.93359375 16.20703125 C-13.45727025 18.71672616 -15.71367783 20.62620958 -19 22 C-20.33578652 22.66173756 -21.66944148 23.32781234 -23 24 C-18.32533663 18.37696243 -13.32234333 13.20258446 -8.125 8.0625 C-7.34125 7.28326172 -6.5575 6.50402344 -5.75 5.70117188 C-3.83561419 3.79845915 -1.91891966 1.89813829 0 0 Z " fill="#191919" transform="translate(361,299)"/>
<path d="M0 0 C0.33 0.66 0.66 1.32 1 2 C0.34 2 -0.32 2 -1 2 C-1.23074219 2.55558594 -1.46148437 3.11117187 -1.69921875 3.68359375 C-3.35191392 6.62668155 -5.42008788 8.68443518 -7.8125 11.0625 C-8.66457031 11.91972656 -9.51664062 12.77695312 -10.39453125 13.66015625 C-13.93369718 16.83850766 -17.73543995 18.94669331 -22 21 C-18.02470675 16.11606829 -13.7374248 11.59896123 -9.3125 7.125 C-8.45652222 6.24968628 -8.45652222 6.24968628 -7.58325195 5.35668945 C-3.35479191 1.11826397 -3.35479191 1.11826397 0 0 Z " fill="#171717" transform="translate(384,621)"/>
<path d="M0 0 C0.33 0 0.66 0 1 0 C1.19601608 1.74906659 1.38147403 3.49931846 1.5625 5.25 C1.66691406 6.22453125 1.77132813 7.1990625 1.87890625 8.203125 C1.98974468 10.7631352 1.77738092 12.58148159 1 15 C1.66 15 2.32 15 3 15 C3.18175781 15.59167969 3.36351562 16.18335938 3.55078125 16.79296875 C4.95667057 21.212508 6.37527181 25.12540125 9 29 C7.35 28.67 5.7 28.34 4 28 C3.67 27.01 3.34 26.02 3 25 C2.34 24.34 1.68 23.68 1 23 C0.49978523 20.41701962 0.11565521 17.91869476 -0.1875 15.3125 C-0.28224609 14.61705078 -0.37699219 13.92160156 -0.47460938 13.20507812 C-1.04186854 8.56740968 -0.84913699 4.59497536 0 0 Z " fill="#131313" transform="translate(268,744)"/>
<path d="M0 0 C0.27714844 0.57234375 0.55429687 1.1446875 0.83984375 1.734375 C4.5288816 8.93855667 8.97256592 14.2498682 15.2421875 19.37109375 C15.82226562 19.90863281 16.40234375 20.44617188 17 21 C17 21.66 17 22.32 17 23 C7.80069191 19.81133169 2.15735719 11.47219002 -2 3 C-2 2.34 -2 1.68 -2 1 C-1.34 0.67 -0.68 0.34 0 0 Z " fill="#121313" transform="translate(288,408)"/>
<path d="M0 0 C-0.56072975 3.61710176 -1.78026991 5.05556748 -4.5625 7.375 C-5.27535156 7.97183594 -5.98820313 8.56867187 -6.72265625 9.18359375 C-10.09038052 11.86968601 -13.51428061 14.46914523 -17 17 C-17.33 15.68 -17.66 14.36 -18 13 C-17.030625 12.525625 -16.06125 12.05125 -15.0625 11.5625 C-10.60933061 9.06327228 -7.38505876 5.52794566 -3.91796875 1.828125 C-2 0 -2 0 0 0 Z " fill="#121212" transform="translate(717,685)"/>
<path d="M0 0 C-1.32079648 3.0023959 -2.64443737 4.81494469 -5.1875 6.875 C-5.80109375 7.3803125 -6.4146875 7.885625 -7.046875 8.40625 C-8.01367188 9.19515625 -8.01367188 9.19515625 -9 10 C-10.31537477 11.1216374 -11.62801069 12.24649701 -12.9375 13.375 C-13.95833333 14.25 -14.97916667 15.125 -16 16 C-16.66 15.67 -17.32 15.34 -18 15 C-15.57473278 12.48787748 -13.13287993 9.99253602 -10.6875 7.5 C-9.65206055 6.42685547 -9.65206055 6.42685547 -8.59570312 5.33203125 C-7.59506836 4.31689453 -7.59506836 4.31689453 -6.57421875 3.28125 C-5.96151123 2.65283203 -5.34880371 2.02441406 -4.7175293 1.37695312 C-3 0 -3 0 0 0 Z " fill="#191919" transform="translate(336,670)"/>
<path d="M0 0 C0.69738281 0.01353516 1.39476562 0.02707031 2.11328125 0.04101562 C3.82585541 0.0762055 5.53802941 0.13000845 7.25 0.1875 C6.92 1.1775 6.59 2.1675 6.25 3.1875 C0.31 3.1875 -5.63 3.1875 -11.75 3.1875 C-7.36449685 -0.10162736 -5.15390167 -0.18998314 0 0 Z " fill="#171717" transform="translate(499.75,715.8125)"/>
<path d="M0 0 C0.33 0.99 0.66 1.98 1 3 C-2.96 6.96 -6.92 10.92 -11 15 C-11.33 14.01 -11.66 13.02 -12 12 C-8.88409801 7.28744016 -4.54709562 3.30697864 0 0 Z " fill="#161717" transform="translate(782,619)"/>
<path d="M0 0 C0.33 0.66 0.66 1.32 1 2 C0.29875 2.66 -0.4025 3.32 -1.125 4 C-3.40336978 6.23975334 -5.17964506 8.62793433 -7 11.25 C-9.6266397 14.87013555 -9.6266397 14.87013555 -12.875 16 C-13.57625 16 -14.2775 16 -15 16 C-10.30233025 10.33870569 -5.25276628 5.14771096 0 0 Z " fill="#1F1F1F" transform="translate(429,574)"/>
<path d="M0 0 C5.44305768 1.36076442 10.0292406 4.03931867 14 8 C14 8.99 14 9.98 14 11 C12.453125 9.8553125 12.453125 9.8553125 10.875 8.6875 C8.46964284 6.95192725 6.3260051 5.67548393 3.625 4.375 C1 3 1 3 0 0 Z " fill="#121212" transform="translate(778,250)"/>
<path d="M0 0 C0.85851562 0.36931641 0.85851562 0.36931641 1.734375 0.74609375 C0.44472324 2.12172229 -0.89251793 3.45375768 -2.265625 4.74609375 C-2.925625 4.74609375 -3.585625 4.74609375 -4.265625 4.74609375 C-4.925625 6.06609375 -5.585625 7.38609375 -6.265625 8.74609375 C-7.585625 8.41609375 -8.905625 8.08609375 -10.265625 7.74609375 C-9.03163437 6.37732259 -7.77781877 5.02640209 -6.515625 3.68359375 C-5.81953125 2.92949219 -5.1234375 2.17539062 -4.40625 1.3984375 C-2.265625 -0.25390625 -2.265625 -0.25390625 0 0 Z " fill="#181817" transform="translate(491.265625,514.25390625)"/>
<path d="M0 0 C0.99 0.66 1.98 1.32 3 2 C0.87717331 3.00460531 -1.24833021 4.00355602 -3.375 5 C-5.15003906 5.8353125 -5.15003906 5.8353125 -6.9609375 6.6875 C-10 8 -10 8 -12 8 C-11 5 -11 5 -8.6015625 3.54296875 C-7.61929687 3.09566406 -6.63703125 2.64835938 -5.625 2.1875 C-4.15933594 1.49720703 -4.15933594 1.49720703 -2.6640625 0.79296875 C-1.78492188 0.53128906 -0.90578125 0.26960937 0 0 Z " fill="#141514" transform="translate(403,748)"/>
<path d="M0 0 C0.66 0 1.32 0 2 0 C0.6744419 3.62276315 -0.94346955 6.63505348 -3.125 9.8125 C-3.66382813 10.60269531 -4.20265625 11.39289062 -4.7578125 12.20703125 C-5.37269531 13.09455078 -5.37269531 13.09455078 -6 14 C-6.33 13.01 -6.66 12.02 -7 11 C-5.63671875 8.30078125 -5.63671875 8.30078125 -3.6875 5.3125 C-3.05199219 4.31863281 -2.41648437 3.32476563 -1.76171875 2.30078125 C-1.18035156 1.54152344 -0.59898437 0.78226563 0 0 Z " fill="#141415" transform="translate(792,604)"/>
<path d="M0 0 C0.33 1.32 0.66 2.64 1 4 C-2.33333333 6.66666667 -5.66666667 9.33333333 -9 12 C-9.66 11.67 -10.32 11.34 -11 11 C-7.37 7.37 -3.74 3.74 0 0 Z " fill="#1F1E1F" transform="translate(349,311)"/>
<path d="M0 0 C-1.48781815 3.78717347 -3.61988409 5.77407001 -7 8 C-7.99 7.67 -8.98 7.34 -10 7 C-8.90536178 5.82438854 -7.79892814 4.6597511 -6.6875 3.5 C-6.07261719 2.8503125 -5.45773437 2.200625 -4.82421875 1.53125 C-3 0 -3 0 0 0 Z " fill="#161616" transform="translate(456,550)"/>
<path d="M0 0 C-0.33 0.99 -0.66 1.98 -1 3 C-4.63 3.33 -8.26 3.66 -12 4 C-12 3.34 -12 2.68 -12 2 C-10.37548581 1.66430703 -8.75037083 1.3315204 -7.125 1 C-6.22007812 0.814375 -5.31515625 0.62875 -4.3828125 0.4375 C-2 0 -2 0 0 0 Z " fill="#141414" transform="translate(668,714)"/>
<path d="M0 0 C0 3.21534057 -0.26476072 4.35582586 -2 7 C-4.5 8.8125 -4.5 8.8125 -7 10 C-7.66 9.67 -8.32 9.34 -9 9 C-6.03 6.03 -3.06 3.06 0 0 Z " fill="#212020" transform="translate(383,277)"/>
<path d="M0 0 C0.33 1.32 0.66 2.64 1 4 C-1.97 6.475 -1.97 6.475 -5 9 C-5.66 8.34 -6.32 7.68 -7 7 C-4.69 4.69 -2.38 2.38 0 0 Z " fill="#1A1B1B" transform="translate(405,598)"/>
<path d="M0 0 C0.33 1.32 0.66 2.64 1 4 C-1.97 6.475 -1.97 6.475 -5 9 C-5.66 8.34 -6.32 7.68 -7 7 C-4.69 4.69 -2.38 2.38 0 0 Z " fill="#1A1A1A" transform="translate(445,558)"/>
<path d="M0 0 C0.99 0.66 1.98 1.32 3 2 C1.56570999 2.67354499 0.12742943 3.33859701 -1.3125 4 C-2.51326172 4.556875 -2.51326172 4.556875 -3.73828125 5.125 C-6 6 -6 6 -9 6 C-9 5.34 -9 4.68 -9 4 C-7.57086153 3.27494442 -6.13129342 2.57041565 -4.6875 1.875 C-3.88699219 1.48054687 -3.08648437 1.08609375 -2.26171875 0.6796875 C-1.51535156 0.45539062 -0.76898438 0.23109375 0 0 Z " fill="#141414" transform="translate(329,782)"/>
<path d="M0 0 C3.16115776 1.36983503 3.9927092 1.9890638 6 5 C5.96856707 7.73990408 5.44521663 10.28417854 5 13 C4.67 13 4.34 13 4 13 C3.89042969 12.38511719 3.78085937 11.77023437 3.66796875 11.13671875 C3.43013672 9.92435547 3.43013672 9.92435547 3.1875 8.6875 C3.03667969 7.88699219 2.88585937 7.08648437 2.73046875 6.26171875 C1.92427764 3.76554413 0.97947998 2.67577894 -1 1 C-0.67 0.67 -0.34 0.34 0 0 Z " fill="#1C1C1C" transform="translate(551,436)"/>
<path d="M0 0 C0.33 0 0.66 0 1 0 C1.19672365 1.72814161 1.38196799 3.45759197 1.5625 5.1875 C1.66691406 6.15042969 1.77132813 7.11335937 1.87890625 8.10546875 C1.99758751 10.94233377 1.67765639 13.25423671 1 16 C0.67 16 0.34 16 0 16 C-0.82622671 10.39436958 -1.06795656 5.57710648 0 0 Z " fill="#1E1E1E" transform="translate(268,744)"/>
<path d="M0 0 C0 3.60777515 -0.9904432 5.06295544 -3 8 C-3.99 8.495 -3.99 8.495 -5 9 C-5.66 8.34 -6.32 7.68 -7 7 C-4.69 4.69 -2.38 2.38 0 0 Z " fill="#1F1F1E" transform="translate(369,291)"/>
<path d="M0 0 C0 0.66 0 1.32 0 2 C-1.24420647 2.5345256 -2.49570936 3.05208611 -3.75 3.5625 C-4.44609375 3.85253906 -5.1421875 4.14257812 -5.859375 4.44140625 C-8.30012784 5.07831803 -9.6403655 4.80248831 -12 4 C-10.75539217 3.32332002 -9.50403104 2.65905281 -8.25 2 C-7.55390625 1.62875 -6.8578125 1.2575 -6.140625 0.875 C-4 0 -4 0 0 0 Z " fill="#151515" transform="translate(420,252)"/>
<path d="M0 0 C0 0.33 0 0.66 0 1 C-4.29 1.66 -8.58 2.32 -13 3 C-13 2.34 -13 1.68 -13 1 C-8.23947038 -0.97387813 -5.03511899 -1.0070238 0 0 Z " fill="#191919" transform="translate(485,719)"/>
<path d="M0 0 C2 1 2 1 3 3 C-1.455 4.485 -1.455 4.485 -6 6 C-6.33 5.34 -6.66 4.68 -7 4 C-4.69 3.34 -2.38 2.68 0 2 C0 1.34 0 0.68 0 0 Z " fill="#171717" transform="translate(682,708)"/>
<path d="M0 0 C0.66 0.99 1.32 1.98 2 3 C0.35 4.32 -1.3 5.64 -3 7 C-3.66 6.34 -4.32 5.68 -5 5 C-3.35 3.35 -1.7 1.7 0 0 Z " fill="#191919" transform="translate(413,590)"/>
<path d="M0 0 C0 3.16880694 -0.2058242 4.43689172 -2 7 C-4.625 7.75 -4.625 7.75 -7 8 C-6.02133662 6.85373678 -5.04205413 5.70800212 -4.0625 4.5625 C-3.51722656 3.92441406 -2.97195313 3.28632813 -2.41015625 2.62890625 C-1.63204305 1.73008851 -0.84063472 0.84063472 0 0 Z " fill="#202020" transform="translate(549,455)"/>
<path d="M0 0 C0.66 0.99 1.32 1.98 2 3 C0.71034824 4.37562854 -0.62689293 5.70766393 -2 7 C-2.66 7 -3.32 7 -4 7 C-3.43628586 3.73045798 -2.50037734 2.17424117 0 0 Z " fill="#151516" transform="translate(317,686)"/>
<path d="M0 0 C3.3 0 6.6 0 10 0 C7.60543557 2.39456443 6.34192692 2.75546876 3 3 C2.01 2.01 1.02 1.02 0 0 Z " fill="#060606" transform="translate(304,788)"/>
<path d="M0 0 C0.33 0 0.66 0 1 0 C1.19878036 3.57804656 1.04108797 5.99208089 -1 9 C-1.99 9.33 -2.98 9.66 -4 10 C-2.8905928 6.51329166 -1.73662334 3.22515763 0 0 Z " fill="#151515" transform="translate(290,372)"/>
<path d="M0 0 C0.33 0.99 0.66 1.98 1 3 C-0.32 4.32 -1.64 5.64 -3 7 C-3.66 6.34 -4.32 5.68 -5 5 C-3.35 3.35 -1.7 1.7 0 0 Z " fill="#1B1B1B" transform="translate(397,606)"/>
<path d="M0 0 C0.99 0.66 1.98 1.32 3 2 C-2.75 5 -2.75 5 -5 5 C-4 2 -4 2 -1.9375 0.8125 C-1.298125 0.544375 -0.65875 0.27625 0 0 Z " fill="#171617" transform="translate(338,778)"/>
<path d="M0 0 C4 1 4 1 4 1 Z " fill="#343433" transform="translate(352,439)"/>
<path d="M0 0 C2 1 2 1 2 1 Z " fill="#302F31" transform="translate(272,774)"/>
<path d="" fill="#333333" transform="translate(0,0)"/>
<path d="" fill="#323233" transform="translate(0,0)"/>
<path d="M0 0 C2 1 2 1 2 1 Z " fill="#302F2F" transform="translate(548,439)"/>
<path d="M0 0 C2 1 2 1 2 1 Z " fill="#333133" transform="translate(524,439)"/>
<path d="M0 0 C2 1 2 1 2 1 Z " fill="#313132" transform="translate(520,439)"/>
<path d="M0 0 C2 1 2 1 2 1 Z " fill="#333134" transform="translate(488,439)"/>
<path d="M0 0 C2 1 2 1 2 1 Z " fill="#333233" transform="translate(429,439)"/>
<path d="M0 0 C2 1 2 1 2 1 Z " fill="#333332" transform="translate(416,439)"/>
<path d="M0 0 C2 1 2 1 2 1 Z " fill="#333131" transform="translate(408,439)"/>
<path d="M0 0 C2 1 2 1 2 1 Z " fill="#353434" transform="translate(404,439)"/>
<path d="M0 0 C2 1 2 1 2 1 Z " fill="#333234" transform="translate(392,439)"/>
<path d="M0 0 C2 1 2 1 2 1 Z " fill="#343434" transform="translate(349,439)"/>
<path d="M0 0 C2 1 2 1 2 1 Z " fill="#343232" transform="translate(336,439)"/>
<path d="M0 0 C2 1 2 1 2 1 Z " fill="#343334" transform="translate(289,420)"/>
<path d="M0 0 C2 1 2 1 2 1 Z " fill="#313434" transform="translate(423,248)"/>
<path d="" fill="#272726" transform="translate(0,0)"/>
<path d="" fill="#272726" transform="translate(0,0)"/>
<path d="" fill="#2F302E" transform="translate(0,0)"/>
<path d="" fill="#323130" transform="translate(0,0)"/>
<path d="" fill="#333233" transform="translate(0,0)"/>
<path d="" fill="#2D2E2D" transform="translate(0,0)"/>
<path d="" fill="#302E30" transform="translate(0,0)"/>
<path d="" fill="#2C2D2E" transform="translate(0,0)"/>
<path d="" fill="#333232" transform="translate(0,0)"/>
<path d="" fill="#302E30" transform="translate(0,0)"/>
<path d="" fill="#2D2C2C" transform="translate(0,0)"/>
<path d="" fill="#303031" transform="translate(0,0)"/>
<path d="" fill="#363435" transform="translate(0,0)"/>
<path d="" fill="#2E2F30" transform="translate(0,0)"/>
<path d="" fill="#343432" transform="translate(0,0)"/>
<path d="" fill="#343333" transform="translate(0,0)"/>
<path d="" fill="#312F30" transform="translate(0,0)"/>
<path d="" fill="#30302F" transform="translate(0,0)"/>
<path d="" fill="#312E30" transform="translate(0,0)"/>
<path d="" fill="#2F2D2E" transform="translate(0,0)"/>
<path d="" fill="#393A3A" transform="translate(0,0)"/>
<path d="" fill="#302E2F" transform="translate(0,0)"/>
<path d="" fill="#323030" transform="translate(0,0)"/>
<path d="" fill="#322F30" transform="translate(0,0)"/>
<path d="" fill="#343232" transform="translate(0,0)"/>
<path d="" fill="#323033" transform="translate(0,0)"/>
<path d="" fill="#333132" transform="translate(0,0)"/>
<path d="" fill="#343233" transform="translate(0,0)"/>
<path d="" fill="#323132" transform="translate(0,0)"/>
<path d="" fill="#363332" transform="translate(0,0)"/>
<path d="" fill="#333333" transform="translate(0,0)"/>
<path d="" fill="#333233" transform="translate(0,0)"/>
<path d="" fill="#333133" transform="translate(0,0)"/>
<path d="" fill="#333331" transform="translate(0,0)"/>
<path d="" fill="#333332" transform="translate(0,0)"/>
<path d="" fill="#343333" transform="translate(0,0)"/>
<path d="" fill="#313233" transform="translate(0,0)"/>
<path d="" fill="#323134" transform="translate(0,0)"/>
<path d="" fill="#363235" transform="translate(0,0)"/>
<path d="" fill="#353433" transform="translate(0,0)"/>
<path d="" fill="#353331" transform="translate(0,0)"/>
<path d="" fill="#343333" transform="translate(0,0)"/>
<path d="" fill="#343434" transform="translate(0,0)"/>
<path d="" fill="#353435" transform="translate(0,0)"/>
<path d="" fill="#333132" transform="translate(0,0)"/>
<path d="" fill="#323133" transform="translate(0,0)"/>
<path d="" fill="#303131" transform="translate(0,0)"/>
<path d="" fill="#343435" transform="translate(0,0)"/>
<path d="" fill="#323233" transform="translate(0,0)"/>
<path d="" fill="#353333" transform="translate(0,0)"/>
<path d="" fill="#353232" transform="translate(0,0)"/>
<path d="" fill="#323231" transform="translate(0,0)"/>
<path d="" fill="#333132" transform="translate(0,0)"/>
<path d="" fill="#353232" transform="translate(0,0)"/>
<path d="" fill="#333231" transform="translate(0,0)"/>
<path d="" fill="#353433" transform="translate(0,0)"/>
<path d="" fill="#313030" transform="translate(0,0)"/>
<path d="" fill="#343534" transform="translate(0,0)"/>
<path d="" fill="#353435" transform="translate(0,0)"/>
<path d="" fill="#323333" transform="translate(0,0)"/>
<path d="" fill="#323131" transform="translate(0,0)"/>
<path d="" fill="#343435" transform="translate(0,0)"/>
<path d="" fill="#353436" transform="translate(0,0)"/>
<path d="" fill="#2C2E2D" transform="translate(0,0)"/>
<path d="" fill="#363737" transform="translate(0,0)"/>
<path d="" fill="#3A3A3A" transform="translate(0,0)"/>
<path d="" fill="#353435" transform="translate(0,0)"/>
<path d="" fill="#353436" transform="translate(0,0)"/>
<path d="" fill="#333334" transform="translate(0,0)"/>
<path d="" fill="#343435" transform="translate(0,0)"/>
<path d="" fill="#353437" transform="translate(0,0)"/>
<path d="" fill="#323132" transform="translate(0,0)"/>
<path d="" fill="#333234" transform="translate(0,0)"/>
<path d="" fill="#2E2D2F" transform="translate(0,0)"/>
<path d="" fill="#323233" transform="translate(0,0)"/>
<path d="" fill="#312E31" transform="translate(0,0)"/>
<path d="" fill="#303031" transform="translate(0,0)"/>
<path d="" fill="#333131" transform="translate(0,0)"/>
<path d="" fill="#333130" transform="translate(0,0)"/>
<path d="" fill="#313130" transform="translate(0,0)"/>
<path d="" fill="#323232" transform="translate(0,0)"/>
<path d="" fill="#323131" transform="translate(0,0)"/>
<path d="" fill="#323133" transform="translate(0,0)"/>
<path d="" fill="#323230" transform="translate(0,0)"/>
<path d="" fill="#323230" transform="translate(0,0)"/>
<path d="" fill="#313232" transform="translate(0,0)"/>
<path d="" fill="#333332" transform="translate(0,0)"/>
<path d="" fill="#333233" transform="translate(0,0)"/>
<path d="" fill="#313031" transform="translate(0,0)"/>
<path d="" fill="#2F2E2D" transform="translate(0,0)"/>
</svg>