<svg xmlns="http://www.w3.org/2000/svg" version="1.1" viewBox="108.66 412.49 807.34 197.51">
<path d="M0 0 C0.97694824 -0.0071553 1.95389648 -0.01431061 2.96044922 -0.02168274 C4.02596512 -0.02437164 5.09148102 -0.02706055 6.18928528 -0.02983093 C7.88022812 -0.03968773 7.88022812 -0.03968773 9.60533142 -0.04974365 C13.33880175 -0.06946617 17.07223186 -0.08113717 20.80574036 -0.09111023 C22.0816485 -0.09518576 23.35755665 -0.09926128 24.67212868 -0.10346031 C30.72963825 -0.12216718 36.78712352 -0.13673357 42.84465426 -0.14507228 C49.81988006 -0.15483465 56.79478769 -0.18113206 63.76990145 -0.22157317 C69.82473006 -0.2554647 75.87940516 -0.26722488 81.93433571 -0.27127647 C84.50309214 -0.27614257 87.07184516 -0.28775712 89.64053917 -0.30631447 C93.24037755 -0.33070415 96.83938928 -0.32974054 100.43928528 -0.32279968 C102.0223774 -0.34201477 102.0223774 -0.34201477 103.63745117 -0.36161804 C111.35799878 -0.30752368 117.96476921 0.97416862 123.57527161 6.58467102 C127.24798385 12.6079191 127.43006369 17.51059699 127.41242981 24.42597961 C127.41754074 25.45909775 127.42265167 26.49221588 127.42791748 27.55664062 C127.44181025 30.96968896 127.44085682 34.38253528 127.43855286 37.79560852 C127.44244013 40.17066015 127.44677486 42.54571108 127.45153809 44.92076111 C127.45899976 49.89892327 127.45870949 54.87701452 127.45344543 59.85517883 C127.44765281 66.22960195 127.46457733 72.60373431 127.48779011 78.97810936 C127.50253392 83.8835062 127.50339821 88.78883313 127.50028038 93.6942482 C127.50079333 96.04414572 127.50602602 98.39404717 127.5160923 100.74392319 C127.52845073 104.03266444 127.52166796 107.32084092 127.51008606 110.60957336 C127.5177298 111.57708023 127.52537354 112.5445871 127.5332489 113.54141235 C127.45198034 124.00032024 123.40845853 129.82455061 116.13777161 137.14717102 C114.16089236 138.96415563 112.15700454 140.72482104 110.09480286 142.44404602 C106.37672134 145.67974171 103.0107382 149.27785318 99.57917786 152.81123352 C98.28634815 154.13168217 96.99337664 155.451992 95.70027161 156.77217102 C95.05767395 157.4399054 94.41507629 158.10763977 93.75300598 158.79560852 C86.22603883 166.43719954 79.83611498 167.95192212 69.32455444 168.21852112 C66.29935787 168.22943659 63.27608125 168.20771315 60.25105286 168.17451477 C57.99128871 168.16187792 55.73152301 168.14951628 53.47175598 168.1374054 C49.94981412 168.11254579 46.42795529 168.08446042 42.90608215 168.05122375 C39.47940044 168.02097502 36.05282563 168.00324289 32.62605286 167.98701477 C31.05395805 167.96682533 31.05395805 167.96682533 29.45010376 167.94622803 C20.93174149 167.91710446 15.05945797 169.48039887 7.45027161 173.45967102 C-0.3295815 177.45617745 -8.23769308 181.1634771 -16.17472839 184.83467102 C-17.94432922 185.65415222 -17.94432922 185.65415222 -19.74967957 186.4901886 C-22.03410058 187.54583276 -24.31979213 188.59873259 -26.6068573 189.64863586 C-28.73820513 190.62975278 -30.86567331 191.61935274 -32.98869324 192.61836243 C-33.95113953 193.06743958 -34.91358582 193.51651672 -35.90519714 193.97920227 C-36.74461853 194.37470276 -37.58403992 194.77020325 -38.44889832 195.1776886 C-43.86142982 197.35200955 -47.31424909 197.18194357 -52.70597839 195.24092102 C-56.67050718 193.22992816 -58.88438622 190.10285536 -60.86222839 186.14717102 C-61.96249203 179.55951657 -60.35911079 175.77457634 -56.62089539 170.43992615 C-53.92557152 166.92606159 -50.9353934 163.81016638 -47.78410339 160.70576477 C-47.13145508 160.05261795 -46.47880676 159.39947113 -45.80638123 158.72653198 C-44.44187913 157.36434908 -43.07373561 156.00580456 -41.70207214 154.65083313 C-39.59469947 152.56734073 -37.50126549 150.47053544 -35.40910339 148.3717804 C-34.07656468 147.04481009 -32.74325922 145.7186092 -31.40910339 144.39326477 C-30.78203491 143.76528488 -30.15496643 143.13730499 -29.50889587 142.49029541 C-25.09334208 138.14717102 -25.09334208 138.14717102 -22.86222839 138.14717102 C-22.61472839 137.56967102 -22.36722839 136.99217102 -22.11222839 136.39717102 C-20.67922851 133.81777123 -19.07798163 132.0859551 -16.86222839 130.14717102 C-16.20222839 130.14717102 -15.54222839 130.14717102 -14.86222839 130.14717102 C-14.86222839 129.48717102 -14.86222839 128.82717102 -14.86222839 128.14717102 C-14.20222839 128.14717102 -13.54222839 128.14717102 -12.86222839 128.14717102 C-12.62968353 127.58832718 -12.39713867 127.02948334 -12.157547 126.45370483 C-10.52694345 123.55013948 -8.51158021 121.5800939 -6.13713074 119.24263 C-5.65891373 118.76893982 -5.18069672 118.29524963 -4.68798828 117.8072052 C-3.6528965 116.78304264 -2.61553739 115.7611676 -1.57616806 114.74134636 C0.06733772 113.1280461 1.70403919 111.50812121 3.33903503 109.88619995 C7.98745509 105.27750938 12.64854966 100.68171141 17.31257629 96.08882141 C20.16754981 93.27647606 23.01524627 90.45692597 25.85873032 87.632967 C26.94434842 86.55793579 28.03287253 85.48583117 29.12430191 84.41670036 C30.64681084 82.92526338 32.16000556 81.42494109 33.67146301 79.9223175 C34.53591034 79.07056442 35.40035767 78.21881134 36.29100037 77.34124756 C38.4597505 75.24261471 38.4597505 75.24261471 38.13777161 72.14717102 C37.15773163 72.14130478 36.17769165 72.13543854 35.16795349 72.12939453 C25.89973974 72.07200402 16.63175696 71.99915801 7.36377907 71.91145611 C2.59982137 71.86686454 -2.16405301 71.8275841 -6.92814636 71.80073547 C-11.53190385 71.77459012 -16.13533879 71.73410945 -20.73889542 71.68398476 C-22.48897391 71.66739163 -24.23910809 71.65583058 -25.989254 71.64955711 C-47.74810887 71.56372166 -47.74810887 71.56372166 -53.52467346 66.76660156 C-55.86965905 64.15886125 -57.54366851 61.65132976 -57.86222839 58.14717102 C-57.96535339 57.05404602 -58.06847839 55.96092102 -58.17472839 54.83467102 C-57.44540549 46.22866081 -50.98389824 40.83953677 -45.15129089 35.07295227 C-43.88265701 33.80357063 -43.88265701 33.80357063 -42.58839417 32.50854492 C-40.80501304 30.72749653 -39.01795687 28.9501213 -37.22746277 27.17622375 C-34.49459057 24.46696957 -31.77530592 21.74461761 -29.05754089 19.0202179 C-27.31874854 17.28700213 -25.57919064 15.55455397 -23.83879089 13.82295227 C-23.02922943 13.0124794 -22.21966797 12.20200653 -21.38557434 11.36697388 C-14.75840817 4.82212006 -9.66726244 0.04875125 0 0 Z " fill="#101011" transform="translate(169.8622283935547,412.8528289794922)"/>
<path d="M0 0 C5.62121061 6.82489596 8.11564178 13.3038108 9 22 C6.59564994 23.20217503 5.31618631 23.03897118 2.6484375 22.87890625 C1.79765625 22.83056641 0.946875 22.78222656 0.0703125 22.73242188 C-0.81914062 22.67634766 -1.70859375 22.62027344 -2.625 22.5625 C-3.5221875 22.51029297 -4.419375 22.45808594 -5.34375 22.40429688 C-7.56284012 22.2744565 -9.78149871 22.13948661 -12 22 C-12.19698486 21.45005371 -12.39396973 20.90010742 -12.59692383 20.33349609 C-12.86013428 19.61242676 -13.12334473 18.89135742 -13.39453125 18.1484375 C-13.65339111 17.43349121 -13.91225098 16.71854492 -14.17895508 15.98193359 C-15.34242429 13.17341648 -16.5057591 11.75270982 -19 10 C-26.83623915 7.38792028 -33.45856662 7.11266124 -41.23828125 9.953125 C-43.58847436 11.34969208 -44.66946856 12.60504341 -46 15 C-46.14793392 17.83072766 -46.14793392 17.83072766 -45.6875 20.75 C-45.56761719 21.73484375 -45.44773437 22.7196875 -45.32421875 23.734375 C-45.21722656 24.48203125 -45.11023438 25.2296875 -45 26 C-38.20843668 28.73582409 -31.38530117 31.29410924 -24.375 33.41796875 C-7.50225269 38.5316273 -7.50225269 38.5316273 -1 43 C0.36125 43.86625 0.36125 43.86625 1.75 44.75 C7.83627918 50.83627918 9.79509693 57.27273726 10.1328125 65.78515625 C9.81730263 73.42235112 7.42768478 80.491305 2 86 C-9.90733741 95.82239506 -24.05643714 97.08719038 -39.00390625 95.7265625 C-48.6135281 94.27760103 -56.6209362 90.44664296 -63.3046875 83.31640625 C-67.27691313 77.88891823 -69.29011792 71.7089769 -69 65 C-65.07629724 63.09420152 -63.18298511 63.04932157 -59 64 C-55.99815963 64.09618038 -53.0024604 64.05887177 -50 64 C-49.35165346 65.269553 -48.70642185 66.54069706 -48.0625 67.8125 C-47.70285156 68.52019531 -47.34320313 69.22789062 -46.97265625 69.95703125 C-46 72 -46 72 -45 75 C-38.23093839 78.32067173 -30.3999518 78.63127388 -23 79 C-22.67 78.34 -22.34 77.68 -22 77 C-21.236875 76.855625 -20.47375 76.71125 -19.6875 76.5625 C-16.49197176 75.89366851 -15.16321541 75.47224619 -13 73 C-11.84252618 68.92128275 -11.60852813 65.3249817 -12.8125 61.25 C-19.3034042 54.5736414 -28.85708073 52.79015891 -37.51977539 50.30322266 C-47.14455103 47.48009945 -58.34272019 43.82481883 -64.2421875 35.1796875 C-68.13006956 27.91337 -68.41260506 19.19717798 -66.26953125 11.3125 C-62.49430728 2.19032616 -56.65446102 -2.61816721 -48 -7 C-32.72728562 -12.72726789 -12.48464371 -11.05237101 0 0 Z " fill="#111212" transform="translate(399,459)"/>
<path d="M0 0 C0.66 0 1.32 0 2 0 C2 0.99 2 1.98 2 3 C7.28 3 12.56 3 18 3 C18.17179013 12.89575128 18.33870061 22.7915727 18.5 32.6875 C18.51187725 33.41597137 18.5237545 34.14444275 18.53599167 34.89498901 C18.90977052 57.93153855 19.13860912 80.96008369 19 104 C12.73 104 6.46 104 0 104 C-0.495 100.535 -0.495 100.535 -1 97 C-1.70962891 97.70576172 -1.70962891 97.70576172 -2.43359375 98.42578125 C-8.69246686 104.31863839 -14.30359598 107.03721033 -22.9375 107.375 C-33.02411841 106.99968397 -40.70657604 103.4772234 -47.6875 96.25390625 C-56.7972966 85.29937583 -57.00221746 72.04067904 -56.22753906 58.44726562 C-55.76398555 53.46157844 -54.43079705 49.34825808 -52 45 C-51.56429687 44.195625 -51.12859375 43.39125 -50.6796875 42.5625 C-46.44910099 35.53464044 -40.80732571 30.64912248 -33 28 C-22.63812922 26.20548607 -14.43285755 26.94752065 -5.62890625 32.78125 C-4 34 -4 34 -2 36 C-1.67 25.11 -1.34 14.22 -1 3 C-0.34 3 0.32 3 1 3 C0.505 1.515 0.505 1.515 0 0 Z M-31.75 48.875 C-36.73905003 55.80423615 -37.75249417 63.61506494 -37 72 C-35.55079359 79.16078462 -33.56607329 84.5377113 -27.375 88.8125 C-21.3395985 90.93606719 -15.52332408 91.0050363 -9.625 88.375 C-4.54761617 85.43707831 -2.22762917 81.44161066 -0.6875 75.875 C0.99005925 66.89779104 -0.20661059 57.82332453 -5 50 C-7.97129764 46.41920541 -10.46493019 44.16013414 -15 43 C-22.25512188 42.42419668 -26.53701751 43.42506376 -31.75 48.875 Z " fill="#121213" transform="translate(630,448)"/>
<path d="M0 0 C5.94 0 11.88 0 18 0 C18 33.33 18 66.66 18 101 C12.06 101 6.12 101 0 101 C-0.33 99.35 -0.66 97.7 -1 96 C-1.56847656 96.40992188 -2.13695312 96.81984375 -2.72265625 97.2421875 C-10.59303114 102.73436898 -17.3938136 104.90461845 -27 104 C-36.73835233 102.24680193 -43.15799194 97.87881129 -48.875 89.875 C-49.94914183 88.27128127 -50.99415402 86.64741261 -52 85 C-52.37382813 84.40445313 -52.74765625 83.80890625 -53.1328125 83.1953125 C-57.36160041 72.49000255 -56.38678037 56.07791124 -52.26171875 45.61328125 C-48.14507115 37.08685016 -43.04203648 30.75885015 -34.6875 26.1875 C-30.07688175 24.70272463 -25.82834843 24.14879348 -21 24 C-20.25621094 23.97421875 -19.51242187 23.9484375 -18.74609375 23.921875 C-13.66282416 24.10374511 -10.45009666 25.7707228 -6.21484375 28.5625 C-4.74519165 29.52349609 -4.74519165 29.52349609 -3.24584961 30.50390625 C-2.50471924 30.99761719 -1.76358887 31.49132812 -1 32 C-1.00523682 31.10168457 -1.01047363 30.20336914 -1.01586914 29.27783203 C-1.03289725 25.94937501 -1.04544337 22.62096419 -1.05493164 19.29248047 C-1.05996474 17.8510668 -1.06679173 16.40965824 -1.07543945 14.96826172 C-1.08754983 12.89809915 -1.09323847 10.82800399 -1.09765625 8.7578125 C-1.10289307 7.5114502 -1.10812988 6.26508789 -1.11352539 4.98095703 C-1 2 -1 2 0 0 Z M-30.75 45.8125 C-34.86936671 51.64826951 -35.3413701 56.95772323 -35.3125 63.875 C-35.32861328 64.63941406 -35.34472656 65.40382813 -35.36132812 66.19140625 C-35.36628193 72.02698795 -34.67250756 78.04656368 -30.58325195 82.56567383 C-25.7800681 86.72744562 -21.76194691 87.36285689 -15.63671875 87.2734375 C-11.46329554 86.84063806 -8.31386682 85.56978098 -5 83 C0.21702874 76.41006896 1.46909226 67.58632147 0.875 59.3125 C-0.10863956 53.08278279 -2.20799851 47.20240427 -7.0625 43 C-15.09110962 37.5337126 -24.09590959 39.00718026 -30.75 45.8125 Z " fill="#121313" transform="translate(898,451)"/>
<path d="M0 0 C0.93392578 -0.01998047 1.86785156 -0.03996094 2.83007812 -0.06054688 C12.92982374 -0.05353803 20.89786352 3.13223728 28.2109375 10.109375 C35.40773329 18.58623328 37.85520986 30.53157226 37.1875 41.4375 C36.8575 42.7575 36.5275 44.0775 36.1875 45.4375 C18.6975 45.7675 1.2075 46.0975 -16.8125 46.4375 C-16.8125 48.0875 -16.8125 49.7375 -16.8125 51.4375 C-15.3275 51.9325 -15.3275 51.9325 -13.8125 52.4375 C-13.8125 53.7575 -13.8125 55.0775 -13.8125 56.4375 C-7.63636318 62.33914185 -3.2346991 62.73489966 5.01171875 62.65234375 C8.79137578 62.39664739 11.16192949 61.74648802 14.1875 59.4375 C14.53167969 58.5815625 14.87585938 57.725625 15.23046875 56.84375 C17.1875 54.4375 17.1875 54.4375 19.20703125 54.03198242 C21.77912798 53.94436779 24.30437846 54.00276854 26.875 54.125 C27.76767578 54.14755859 28.66035156 54.17011719 29.58007812 54.19335938 C31.78424272 54.25229426 33.98502672 54.33449182 36.1875 54.4375 C33.6840664 63.20131863 29.737153 69.51574521 22.13671875 74.88671875 C12.06930325 80.31384254 -0.64127521 81.07233059 -11.59765625 78.1796875 C-21.19108902 74.96495694 -28.49283546 69.99985136 -33.16015625 60.7734375 C-38.2978378 48.28831888 -38.71647909 34.0324891 -34.13671875 21.2734375 C-29.81158732 12.01076666 -22.36980976 4.95094615 -12.90478516 1.04394531 C-8.67597637 -0.18176776 -4.37009558 -0.03276827 0 0 Z M-11.8125 19.4375 C-15.38670722 24.01516112 -16.8125 26.45896599 -16.8125 32.4375 C-5.5925 32.4375 5.6275 32.4375 17.1875 32.4375 C17.35509756 26.67335752 17.35509756 26.67335752 15 22.25 C14.39091797 21.26966797 14.39091797 21.26966797 13.76953125 20.26953125 C10.95268206 17.00755034 8.33521473 15.59694473 4.06640625 15.00390625 C-4.68116898 14.85119922 -4.68116898 14.85119922 -11.8125 19.4375 Z " fill="#121213" transform="translate(451.8125,475.5625)"/>
<path d="M0 0 C0.88647217 -0.01861084 1.77294434 -0.03722168 2.6862793 -0.05639648 C12.31445241 0.0356579 20.46373653 3.89247356 27.4375 10.5 C29.48478661 13.01523783 31.00866371 15.5936171 32.4375 18.5 C32.7571875 19.12003906 33.076875 19.74007813 33.40625 20.37890625 C36.91576659 28.68151263 35.4375 36.03470575 35.4375 45.5 C17.9475 45.5 0.4575 45.5 -17.5625 45.5 C-15.2964365 54.76836626 -15.2964365 54.76836626 -9.5625 60.5 C-3.05253187 63.64962683 4.3069855 63.33480387 11.1875 61.5 C12.30125 61.005 12.30125 61.005 13.4375 60.5 C13.4375 59.84 13.4375 59.18 13.4375 58.5 C14.0975 58.5 14.7575 58.5 15.4375 58.5 C16.0975 57.18 16.7575 55.86 17.4375 54.5 C23.0475 54.5 28.6575 54.5 34.4375 54.5 C33.1093907 62.46865582 29.92491864 67.83024202 23.5625 72.875 C14.46138052 79.15703467 4.25196153 80.34469391 -6.5625 79.5 C-16.10468124 77.613128 -23.14760224 74.16016985 -29.8125 67.125 C-37.41262068 55.72481899 -39.05812706 43.84370649 -37.09765625 30.28515625 C-34.51191226 18.39685401 -28.67618236 9.85090207 -18.56640625 3.18359375 C-12.64520329 0.15438653 -6.51739824 0.09018069 0 0 Z M-14.5625 21.5 C-16.12862561 24.24459636 -16.79259529 26.36905416 -17.5625 29.5 C-17.2325 30.49 -16.9025 31.48 -16.5625 32.5 C-5.3425 32.5 5.8775 32.5 17.4375 32.5 C15.55912474 22.95787492 15.55912474 22.95787492 9.1953125 16.90234375 C1.06260451 12.76687326 -8.77615959 14.47055832 -14.5625 21.5 Z " fill="#121212" transform="translate(725.5625,475.5)"/>
<path d="M0 0 C5.43284931 3.40650023 8.76082781 6.5880687 11.0625 12.6875 C12.69416252 20.70984073 12.95217276 28.58479072 12.91015625 36.75390625 C12.9087413 37.80658188 12.90732635 38.85925751 12.90586853 39.9438324 C12.90031296 43.27508499 12.88776888 46.60626804 12.875 49.9375 C12.86997925 52.2089834 12.86541735 54.48046786 12.86132812 56.75195312 C12.85035812 62.29299516 12.83312452 67.83398583 12.8125 73.375 C6.5425 73.375 0.2725 73.375 -6.1875 73.375 C-6.5175 71.395 -6.8475 69.415 -7.1875 67.375 C-7.785625 68.1175 -8.38375 68.86 -9 69.625 C-13.99593791 74.57859945 -21.35920033 76.57338708 -28.25 76.8125 C-35.89946163 76.45982212 -43.26285608 74.33516701 -49.1875 69.375 C-52.40247972 65.71446602 -54.83267506 62.34254914 -55.1875 57.375 C-55.26097656 56.72917969 -55.33445312 56.08335937 -55.41015625 55.41796875 C-55.86402832 48.77281619 -53.78481009 43.90086801 -50.1875 38.375 C-44.48160005 32.18002291 -34.37484106 29.43748837 -26.20703125 28.83984375 C-24.46196289 28.70932617 -24.46196289 28.70932617 -22.68164062 28.57617188 C-21.46669922 28.48916016 -20.25175781 28.40214844 -19 28.3125 C-17.77345703 28.22162109 -16.54691406 28.13074219 -15.28320312 28.03710938 C-12.25153705 27.81297842 -9.21965363 27.5924188 -6.1875 27.375 C-6.63096217 25.58351788 -7.0863552 23.7949858 -7.546875 22.0078125 C-7.79920898 21.01152832 -8.05154297 20.01524414 -8.31152344 18.98876953 C-9.01738753 16.20138973 -9.01738753 16.20138973 -11.4375 14.25 C-17.62792547 12.28031917 -23.16491923 11.67930337 -29.1875 14.375 C-31.54397001 16.71579757 -31.54397001 16.71579757 -33.1875 19.375 C-34.78035277 21.30542618 -35.59310964 22.2685181 -38.08862305 22.71557617 C-39.13336792 22.6920105 -39.13336792 22.6920105 -40.19921875 22.66796875 C-40.95654297 22.65830078 -41.71386719 22.64863281 -42.49414062 22.63867188 C-43.27982422 22.61353516 -44.06550781 22.58839844 -44.875 22.5625 C-46.07092773 22.54219727 -46.07092773 22.54219727 -47.29101562 22.52148438 C-49.25679967 22.48617089 -51.22223582 22.43236447 -53.1875 22.375 C-53.5175 20.725 -53.8475 19.075 -54.1875 17.375 C-53.5275 17.375 -52.8675 17.375 -52.1875 17.375 C-52.084375 16.653125 -51.98125 15.93125 -51.875 15.1875 C-51.11956053 12.09706579 -50.03218685 9.95756159 -48.1875 7.375 C-47.5275 7.375 -46.8675 7.375 -46.1875 7.375 C-45.8575 6.385 -45.5275 5.395 -45.1875 4.375 C-43.55078125 3.05859375 -43.55078125 3.05859375 -41.5 1.8125 C-40.83613281 1.39871094 -40.17226563 0.98492187 -39.48828125 0.55859375 C-28.60877762 -5.03816278 -11.0816719 -5.29812098 0 0 Z M-15.71484375 40.4609375 C-22.08891231 40.83640858 -27.72869019 41.89575859 -33.1875 45.375 C-35.18575961 48.37238941 -35.46300398 49.00847508 -35.4375 52.375 C-35.44265625 53.055625 -35.4478125 53.73625 -35.453125 54.4375 C-35.28667603 56.69916007 -35.28667603 56.69916007 -33.1875 59.375 C-28.39794064 62.05151847 -23.31178475 62.0609592 -18.0703125 60.91015625 C-12.82481119 59.23753413 -10.29168631 56.89018009 -7.1875 52.375 C-5.89300505 48.49151516 -6.05546688 45.46802664 -6.1875 41.375 C-7.23240735 40.1071044 -7.23240735 40.1071044 -9.5625 40.25 C-11.61326737 40.32071612 -13.66404273 40.39120393 -15.71484375 40.4609375 Z " fill="#131313" transform="translate(822.1875,478.625)"/>
<path d="M0 0 C0 2.64 0 5.28 0 8 C0.57105469 7.51789063 1.14210938 7.03578125 1.73046875 6.5390625 C9.34297045 0.60881475 16.35339397 -1.36443532 25.9921875 -0.8359375 C33.7907237 0.26579476 40.04436541 3.09027083 44.875 9.4375 C48.60662882 14.85227608 49.45501559 20.993278 50.125 27.375 C50.20919189 28.1680957 50.29338379 28.96119141 50.38012695 29.77832031 C51.86128166 44.8269722 50.7832045 59.93581128 50 75 C50.66 75.33 51.32 75.66 52 76 C44.74 76 37.48 76 30 76 C30.03480469 72.78378906 30.06960938 69.56757812 30.10546875 66.25390625 C30.12890895 63.11630133 30.14710012 59.97870642 30.16479492 56.84106445 C30.17982036 54.6714232 30.20024653 52.50181202 30.22631836 50.33227539 C30.26297706 47.2019099 30.27978926 44.0719483 30.29296875 40.94140625 C30.30845261 39.98166397 30.32393646 39.02192169 30.33988953 38.03309631 C30.34138398 31.96357385 29.68620865 26.51742734 27 21 C23.47581395 17.47581395 20.75448601 16.10122035 15.75 15.8125 C11.76711713 16.01164414 8.76752191 16.76978876 5 18 C5 18.66 5 19.32 5 20 C4.34 20 3.68 20 3 20 C0.6188795 27.45508449 -0.42333702 34.10837922 -0.29296875 41.91796875 C-0.28660149 43.39285515 -0.28660149 43.39285515 -0.28010559 44.89753723 C-0.26350248 47.99448704 -0.22588645 51.09075162 -0.1875 54.1875 C-0.17242937 56.30532905 -0.15874517 58.42316844 -0.14648438 60.54101562 C-0.11622922 65.69447769 -0.05747415 70.84648478 0 76 C-6.6 76 -13.2 76 -20 76 C-20.02255193 66.238486 -20.04091561 56.47698917 -20.05181217 46.71545506 C-20.05704078 42.18325906 -20.06413801 37.65108173 -20.07543945 33.11889648 C-20.08626914 28.7487717 -20.09227701 24.37866492 -20.09487724 20.00852776 C-20.09673135 18.33749037 -20.10035168 16.66645403 -20.10573006 14.99542427 C-20.11294159 12.66302449 -20.1139909 10.33070007 -20.11352539 7.99829102 C-20.11712067 7.3005809 -20.12071594 6.60287079 -20.12442017 5.88401794 C-20.11405216 1.11405216 -20.11405216 1.11405216 -19 0 C-16.18165167 -0.26449567 -13.38705625 -0.46897252 -10.5625 -0.625 C-9.77294922 -0.6765625 -8.98339844 -0.728125 -8.16992188 -0.78125 C-2.24898539 -1.12449269 -2.24898539 -1.12449269 0 0 Z " fill="#121212" transform="translate(516,476)"/>
<path d="M0 0 C0.66 0.33 1.32 0.66 2 1 C4.71760108 1.07181821 7.40859388 1.09299506 10.125 1.0625 C11.25615234 1.05573242 11.25615234 1.05573242 12.41015625 1.04882812 C14.27347127 1.03703499 16.13674555 1.01909942 18 1 C19.29983189 4.89949567 19.13922297 8.59844025 19.12939453 12.66235352 C19.13114685 13.54715393 19.13289917 14.43195435 19.13470459 15.34356689 C19.13911061 18.27203322 19.13618974 21.2004393 19.1328125 24.12890625 C19.13348584 26.1600699 19.13445611 28.19123348 19.13571167 30.22239685 C19.1371869 34.48022224 19.13503945 38.73802666 19.13037109 42.99584961 C19.12467029 48.46271461 19.12795615 53.92953057 19.13394356 59.39639378 C19.13755078 63.59043246 19.1364099 67.78445943 19.13381577 71.97849846 C19.13314713 73.99480126 19.13397271 76.01110512 19.13629532 78.02740669 C19.13882486 80.84064692 19.13497711 83.65380679 19.12939453 86.46704102 C19.13141876 87.30605453 19.13344299 88.14506805 19.13552856 89.00950623 C19.11426474 94.77147052 19.11426474 94.77147052 18 97 C18.66 97.33 19.32 97.66 20 98 C20 99.65 20 101.3 20 103 C13.07 103 6.14 103 -1 103 C-1.02283181 93.11417724 -1.04107448 83.22837274 -1.05181217 73.3425293 C-1.05697253 68.74933878 -1.06394123 64.15616765 -1.07543945 59.56298828 C-1.12394326 39.68276334 -1.12898706 19.8559168 0 0 Z " fill="#111112" transform="translate(660,449)"/>
<path d="M0 0 C0.66 0 1.32 0 2 0 C2 0.99 2 1.98 2 3 C7.28 3 12.56 3 18 3 C18.17179013 12.89575128 18.33870061 22.7915727 18.5 32.6875 C18.51781588 33.78020706 18.51781588 33.78020706 18.53599167 34.89498901 C18.90977052 57.93153855 19.13860912 80.96008369 19 104 C12.73 104 6.46 104 0 104 C0 103.01 0 102.02 0 101 C5.28 101.33 10.56 101.66 16 102 C16 69.99 16 37.98 16 5 C11.05 5 6.1 5 1 5 C1 15.89 1 26.78 1 38 C0.67 38 0.34 38 0 38 C0 25.46 0 12.92 0 0 Z " fill="#060707" transform="translate(630,448)"/>
<path d="M0 0 C5.94 0 11.88 0 18 0 C18 33.33 18 66.66 18 101 C12.39 101 6.78 101 1 101 C1 98.36 1 95.72 1 93 C1.66 93.33 2.32 93.66 3 94 C3 95.65 3 97.3 3 99 C7.29 99 11.58 99 16 99 C16 67.32 16 35.64 16 3 C9.07 2.505 9.07 2.505 2 2 C2 12.89 2 23.78 2 35 C1.67 35 1.34 35 1 35 C0.505 17.675 0.505 17.675 0 0 Z " fill="#030304" transform="translate(898,451)"/>
<path d="M0 0 C-1 2 -1 2 -3 3 C-7.62 3 -12.24 3 -17 3 C-17 26.43 -17 49.86 -17 74 C-17.33 74 -17.66 74 -18 74 C-18 70.04 -18 66.08 -18 62 C-18.66 62 -19.32 62 -20 62 C-20.02312764 54.06386213 -20.04091723 46.12773824 -20.05181217 38.19157505 C-20.05704008 34.50685502 -20.06413605 30.82215797 -20.07543945 27.13745117 C-20.08627162 23.58429169 -20.09227753 20.03115437 -20.09487724 16.47797966 C-20.0967309 15.11954334 -20.10035038 13.76110829 -20.10573006 12.40268135 C-20.11294475 10.50617777 -20.11340809 8.60965207 -20.11352539 6.71313477 C-20.115746 5.63169693 -20.11796661 4.55025909 -20.12025452 3.43605042 C-20 1 -20 1 -19 0 C-16.18165167 -0.26449567 -13.38705625 -0.46897252 -10.5625 -0.625 C-9.77294922 -0.6765625 -8.98339844 -0.728125 -8.16992188 -0.78125 C-2.24898539 -1.12449269 -2.24898539 -1.12449269 0 0 Z " fill="#1A1A1A" transform="translate(516,476)"/>
<path d="M0 0 C2.09020153 3.13530229 2.2474595 3.8183177 2.22705078 7.37963867 C2.22689972 8.26032516 2.22674866 9.14101166 2.22659302 10.04838562 C2.21627045 10.99534805 2.20594788 11.94231049 2.1953125 12.91796875 C2.1924826 13.89034988 2.18965271 14.86273102 2.18673706 15.86457825 C2.17553599 18.97234366 2.15043148 22.07982159 2.125 25.1875 C2.11497011 27.29361563 2.10584427 29.39973578 2.09765625 31.50585938 C2.07559688 36.6706838 2.04106746 41.83529315 2 47 C6.95 47 11.9 47 17 47 C17 31.82 17 16.64 17 1 C17.33 1 17.66 1 18 1 C18 16.84 18 32.68 18 49 C11.73 49 5.46 49 -1 49 C-0.67 32.83 -0.34 16.66 0 0 Z " fill="#030303" transform="translate(547,503)"/>
<path d="M0 0 C1.1117308 0.00142502 2.22346161 0.00285004 3.36888123 0.00431824 C4.62680984 0.00124161 5.88473846 -0.00183502 7.18078613 -0.00500488 C8.55916018 0.00189234 9.93753242 0.00915927 11.31590271 0.01676941 C12.72312376 0.01796112 14.13034561 0.01841439 15.53756714 0.01815796 C18.48741125 0.01972303 21.43713404 0.02801517 24.38694763 0.04142761 C28.17581475 0.05843312 31.96454863 0.06224153 35.75344944 0.06148243 C38.65898927 0.06175379 41.56449974 0.06722923 44.47002983 0.07448387 C45.86753555 0.07767482 47.26504462 0.07963894 48.66255379 0.08037758 C50.61155003 0.08253574 52.56053398 0.09206503 54.50950623 0.10197449 C55.62044144 0.10578629 56.73137665 0.10959808 57.87597656 0.11352539 C60.37449646 0.24723816 60.37449646 0.24723816 61.37449646 1.24723816 C61.62449646 4.18473816 61.62449646 4.18473816 61.37449646 7.24723816 C60.38449646 7.90723816 59.39449646 8.56723816 58.37449646 9.24723816 C58.70449646 6.93723816 59.03449646 4.62723816 59.37449646 2.24723816 C38.25449646 2.24723816 17.13449646 2.24723816 -4.62550354 2.24723816 C-2.62550354 0.24723816 -2.62550354 0.24723816 0 0 Z " fill="#030303" transform="translate(150.62550354003906,480.7527618408203)"/>
<path d="M0 0 C2.82825734 4.242386 3.12675674 7.95919575 3.11352539 12.97387695 C3.11344986 13.93449539 3.11337433 14.89511383 3.11329651 15.88484192 C3.10813522 16.9089769 3.10297394 17.93311188 3.09765625 18.98828125 C3.0962413 20.04661667 3.09482635 21.10495209 3.09336853 22.19535828 C3.08778159 25.56776789 3.07523144 28.94011054 3.0625 32.3125 C3.05748331 34.60221258 3.0529207 36.89192621 3.04882812 39.18164062 C3.03781643 44.78778317 3.02109126 50.3938868 3 56 C2.01 55.34 1.02 54.68 0 54 C-0.36076355 51.70944214 -0.36076355 51.70944214 -0.34057617 48.81591797 C-0.34034958 47.73494843 -0.34012299 46.65397888 -0.33988953 45.54025269 C-0.32440567 44.36939117 -0.30892181 43.19852966 -0.29296875 41.9921875 C-0.28872391 40.79643097 -0.28447906 39.60067444 -0.28010559 38.36868286 C-0.26326902 34.53722929 -0.22560684 30.70629547 -0.1875 26.875 C-0.17245964 24.28255966 -0.15877011 21.69011111 -0.14648438 19.09765625 C-0.11334918 12.73159252 -0.0631003 6.36583338 0 0 Z " fill="#1B1A1A" transform="translate(832,496)"/>
<path d="M0 0 C0.495 0.99 0.495 0.99 1 2 C0.278125 2.70125 -0.44375 3.4025 -1.1875 4.125 C-3.07169979 5.99864405 -4.69231407 7.85628319 -6.375 9.9375 C-8.20849911 12.1892661 -10.13418438 14.02932821 -12.375 15.875 C-15.61813825 18.56256853 -18.21483944 21.51764858 -20.90234375 24.75 C-22.99379863 26.99334825 -25.25210921 28.88283791 -27.61938477 30.82617188 C-34.61572017 36.66710109 -37.1098224 41.66797148 -38 51 C-38.66 50.67 -39.32 50.34 -40 50 C-40.47264181 44.21013788 -39.31372294 40.64280167 -36 36 C-33.38262295 33.00396943 -30.57505562 30.22472632 -27.734375 27.44140625 C-26.94097717 26.65225327 -26.14757935 25.86310028 -25.33013916 25.05003357 C-22.81041824 22.54701917 -20.28043624 20.05467651 -17.75 17.5625 C-16.03316445 15.86072157 -14.317011 14.15825473 -12.6015625 12.45507812 C-8.40890504 8.29538344 -4.20778753 4.14438606 0 0 Z " fill="#181818" transform="translate(152,421)"/>
<path d="M0 0 C0 7.67248707 -7.76495597 13.17258391 -12.83325195 18.25878906 C-14.44152235 19.87905234 -16.03019446 21.51705951 -17.61914062 23.15625 C-18.63947384 24.1860377 -19.66092029 25.21472384 -20.68359375 26.2421875 C-21.60712646 27.1791748 -22.53065918 28.11616211 -23.48217773 29.08154297 C-24.31305908 29.71463379 -25.14394043 30.34772461 -26 31 C-27.32 30.67 -28.64 30.34 -30 30 C-20.1 20.1 -10.2 10.2 0 0 Z " fill="#1C1C1C" transform="translate(143,553)"/>
<path d="M0 0 C1.59142319 0.0001133 1.59142319 0.0001133 3.21499634 0.00022888 C4.36398407 0.00539017 5.5129718 0.01055145 6.69677734 0.01586914 C7.87033783 0.01728409 9.04389832 0.01869904 10.25302124 0.02015686 C14.0129447 0.0257685 17.77280929 0.03832301 21.53271484 0.05102539 C24.07698482 0.05603889 26.62125572 0.06060206 29.16552734 0.06469727 C35.41294337 0.07574171 41.6603249 0.09249121 47.90771484 0.11352539 C47.57771484 0.77352539 47.24771484 1.43352539 46.90771484 2.11352539 C40.55566024 3.44434536 33.79032309 3.27261595 27.32177734 3.28149414 C26.0254689 3.28648674 26.0254689 3.28648674 24.70297241 3.2915802 C22.896388 3.29659764 21.0897945 3.29899015 19.28320312 3.29882812 C16.51856576 3.30103669 13.7543143 3.31930655 10.98974609 3.33813477 C9.22542453 3.3410654 7.46110109 3.3430524 5.69677734 3.34399414 C4.87384186 3.35117966 4.05090637 3.35836517 3.20303345 3.36576843 C-3.81863137 3.33764864 -3.81863137 3.33764864 -7.09228516 1.11352539 C-4.56484427 -0.15019505 -2.82848207 -0.00670256 0 0 Z " fill="#040405" transform="translate(195.09228515625,577.886474609375)"/>
<path d="M0 0 C1.88153667 0.45233331 3.76105169 0.91637486 5.62402344 1.43994141 C9.90454161 2.44893326 14.24420285 2.51637511 18.625 2.6875 C19.54023438 2.73455078 20.45546875 2.78160156 21.3984375 2.83007812 C25.24152649 2.99946283 28.65753942 3.05991127 32.4609375 2.39453125 C35 2 35 2 38 4 C24.87440365 7.38725067 10.59237758 7.34222079 -2 2 C-1.34 1.34 -0.68 0.68 0 0 Z " fill="#1A1A1A" transform="translate(349,549)"/>
<path d="M0 0 C0.75042068 0.02361099 1.50084137 0.04722198 2.27400208 0.07154846 C4.66854344 0.14806298 7.06275138 0.23213951 9.45703125 0.31640625 C11.08136395 0.36963919 12.70571287 0.42237951 14.33007812 0.47460938 C18.31010659 0.60366152 22.28985269 0.73949579 26.26953125 0.87890625 C26.26953125 1.53890625 26.26953125 2.19890625 26.26953125 2.87890625 C14.05953125 2.87890625 1.84953125 2.87890625 -10.73046875 2.87890625 C-10.73046875 2.21890625 -10.73046875 1.55890625 -10.73046875 0.87890625 C-7.06748132 -0.34208956 -3.80026177 -0.14108328 0 0 Z " fill="#040404" transform="translate(444.73046875,507.12109375)"/>
<path d="M0 0 C11.55 0.33 23.1 0.66 35 1 C35.495 1.99 35.495 1.99 36 3 C23.79 3 11.58 3 -1 3 C-0.67 2.01 -0.34 1.02 0 0 Z " fill="#040404" transform="translate(709,507)"/>
<path d="M0 0 C0.99 0.495 0.99 0.495 2 1 C4.78781084 1.27485459 7.57535455 1.44612738 10.37109375 1.62109375 C13 2 13 2 16 4 C11.38 4 6.76 4 2 4 C2.02320313 5.27617187 2.04640625 6.55234375 2.0703125 7.8671875 C2.08906829 9.5364525 2.10726869 11.2057238 2.125 12.875 C2.15013672 14.13763672 2.15013672 14.13763672 2.17578125 15.42578125 C2.18222656 16.23144531 2.18867187 17.03710938 2.1953125 17.8671875 C2.20578613 18.61081543 2.21625977 19.35444336 2.22705078 20.12060547 C2 22 2 22 0 24 C0 16.08 0 8.16 0 0 Z " fill="#070707" transform="translate(660,449)"/>
<path d="M0 0 C0.33 0 0.66 0 1 0 C1 5.61 1 11.22 1 17 C-4.94 17 -10.88 17 -17 17 C-16.67 14.36 -16.34 11.72 -16 9 C-15.34 9.33 -14.68 9.66 -14 10 C-14 11.65 -14 13.3 -14 15 C-9.38 15 -4.76 15 0 15 C0 10.05 0 5.1 0 0 Z " fill="#010101" transform="translate(833,535)"/>
<path d="M0 0 C0.99 0.495 0.99 0.495 2 1 C3.44742512 8.14178622 2.90857002 15.26037428 2.5625 22.5 C2.51029297 23.70398438 2.45808594 24.90796875 2.40429688 26.1484375 C2.27549039 29.09927694 2.14056631 32.04970131 2 35 C1.34 35 0.68 35 0 35 C0 23.45 0 11.9 0 0 Z " fill="#1B1B1B" transform="translate(659,509)"/>
<path d="M0 0 C-3.51439622 2.34293081 -4.46077104 2.14659323 -8.54296875 1.7578125 C-9.61611328 1.66113281 -10.68925781 1.56445312 -11.79492188 1.46484375 C-12.91447266 1.35269531 -14.03402344 1.24054688 -15.1875 1.125 C-16.31865234 1.02058594 -17.44980469 0.91617187 -18.61523438 0.80859375 C-21.41125407 0.54904762 -24.20587835 0.27912734 -27 0 C-27 -0.33 -27 -0.66 -27 -1 C-17.84515433 -2.31651542 -9.0471361 -1.94455749 0 0 Z " fill="#1D1C1C" transform="translate(385,451)"/>
<path d="M0 0 C0.33 0.66 0.66 1.32 1 2 C-0.0828125 3.051875 -0.0828125 3.051875 -1.1875 4.125 C-3.05185626 5.97894087 -4.65297888 7.81181158 -6.3125 9.875 C-9.43782939 13.72155925 -13.21413997 16.82476255 -17 20 C-17.66 19.67 -18.32 19.34 -19 19 C-12.73 12.73 -6.46 6.46 0 0 Z " fill="#1F1E1F" transform="translate(152,421)"/>
<path d="M0 0 C5.61 0 11.22 0 17 0 C17 0.33 17 0.66 17 1 C15.87980469 1.01417969 14.75960937 1.02835938 13.60546875 1.04296875 C12.13277131 1.08986994 10.66011632 1.13811734 9.1875 1.1875 C8.44951172 1.19330078 7.71152344 1.19910156 6.95117188 1.20507812 C4.50435338 1.25316515 4.50435338 1.25316515 1 2 C-0.87949367 4.39533128 -0.87949367 4.39533128 -2 7 C-2.99 7.33 -3.98 7.66 -5 8 C-5.66 8.66 -6.32 9.32 -7 10 C-6.67 8.68 -6.34 7.36 -6 6 C-5.34 6 -4.68 6 -4 6 C-4 5.34 -4 4.68 -4 4 C-3.34 4 -2.68 4 -2 4 C-1.34 2.68 -0.68 1.36 0 0 Z " fill="#242424" transform="translate(743,530)"/>
<path d="M0 0 C0.94875 0.165 1.8975 0.33 2.875 0.5 C7.5763877 1.18541792 12.26003286 1.08583441 17 1 C17 1.99 17 2.98 17 4 C10.90218999 4.22084624 5.78357065 4.01167675 0 2 C0 1.34 0 0.68 0 0 Z " fill="#1C1C1C" transform="translate(864,551)"/>
<path d="M0 0 C0.33 0 0.66 0 1 0 C1 9.9 1 19.8 1 30 C0.34 30 -0.32 30 -1 30 C-1.33 29.01 -1.66 28.02 -2 27 C-1.67 26.67 -1.34 26.34 -1 26 C-0.84193469 24.07521187 -0.748865 22.1450079 -0.68359375 20.21484375 C-0.64169922 19.04501953 -0.59980469 17.87519531 -0.55664062 16.66992188 C-0.49766602 14.82237305 -0.49766602 14.82237305 -0.4375 12.9375 C-0.39431641 11.70193359 -0.35113281 10.46636719 -0.30664062 9.19335938 C-0.20015802 6.12902665 -0.09814576 3.06460927 0 0 Z " fill="#0A090A" transform="translate(661,518)"/>
<path d="M0 0 C5.28 0 10.56 0 16 0 C15.67 0.99 15.34 1.98 15 3 C9.72 2.67 4.44 2.34 -1 2 C-0.67 1.34 -0.34 0.68 0 0 Z " fill="#070708" transform="translate(744,531)"/>
<path d="M0 0 C0.66 0 1.32 0 2 0 C2.40214229 6.16618181 0.96818336 11.17745757 -1 17 C-3 14 -3 14 -2.5390625 10.64453125 C-2.23742187 9.37996094 -1.93578125 8.11539063 -1.625 6.8125 C-1.32851563 5.54019531 -1.03203125 4.26789062 -0.7265625 2.95703125 C-0.48679687 1.98121094 -0.24703125 1.00539063 0 0 Z " fill="#1B1B1B" transform="translate(407,521)"/>
<path d="M0 0 C1.32 0 2.64 0 4 0 C4 0.66 4 1.32 4 2 C3.15695312 2.12117187 2.31390625 2.24234375 1.4453125 2.3671875 C0.34960938 2.53476562 -0.74609375 2.70234375 -1.875 2.875 C-2.96554687 3.03742187 -4.05609375 3.19984375 -5.1796875 3.3671875 C-8.11932714 3.76256513 -8.11932714 3.76256513 -10 6 C-10 4.35 -10 2.7 -10 1 C-6.38436348 -1.36407003 -4.12252729 -0.85885985 0 0 Z " fill="#1D1D1C" transform="translate(340,523)"/>
<path d="M0 0 C5.61 0.66 11.22 1.32 17 2 C17 2.66 17 3.32 17 4 C6.16819572 4.3853211 6.16819572 4.3853211 1 2 C0.67 1.34 0.34 0.68 0 0 Z " fill="#1C1B1B" transform="translate(782,551)"/>
<path d="M0 0 C0.53367187 0.20496094 1.06734375 0.40992188 1.6171875 0.62109375 C7.41395572 2.717157 12.85732066 3.62810501 19 4 C19 4.33 19 4.66 19 5 C7.34233993 6.7610915 7.34233993 6.7610915 2.75 4.0625 C1.8425 3.381875 0.935 2.70125 0 2 C0 1.34 0 0.68 0 0 Z " fill="#1E1E1E" transform="translate(712,535)"/>
<path d="M0 0 C0.33 0 0.66 0 1 0 C1.33 5.28 1.66 10.56 2 16 C0 15 0 15 -1 12 C-1.09287771 10.31454276 -1.12997204 8.625507 -1.125 6.9375 C-1.12757813 6.05964844 -1.13015625 5.18179688 -1.1328125 4.27734375 C-1 2 -1 2 0 0 Z " fill="#0B0B0B" transform="translate(592,511)"/>
<path d="M0 0 C4.95 0.33 9.9 0.66 15 1 C14.67 1.66 14.34 2.32 14 3 C9.38 3 4.76 3 0 3 C0 2.01 0 1.02 0 0 Z " fill="#030303" transform="translate(630,549)"/>
<path d="M0 0 C1.32 0 2.64 0 4 0 C8.07877462 7.0547046 8.07877462 7.0547046 7.75 11 C7.5025 11.66 7.255 12.32 7 13 C5.82485886 10.64971772 4.6558659 8.29739289 3.5 5.9375 C2.03164261 2.92220735 2.03164261 2.92220735 0 0 Z " fill="#1B1B1B" transform="translate(540,493)"/>
<path d="M0 0 C0.33 0 0.66 0 1 0 C1.08082094 1.95766281 1.13910778 3.91626728 1.1875 5.875 C1.23970703 7.51082031 1.23970703 7.51082031 1.29296875 9.1796875 C1.19628906 10.11039062 1.09960938 11.04109375 1 12 C0.01 12.66 -0.98 13.32 -2 14 C-2.05410687 12.22950311 -2.09284119 10.45853151 -2.125 8.6875 C-2.14820313 7.70136719 -2.17140625 6.71523438 -2.1953125 5.69921875 C-2 3 -2 3 0 0 Z " fill="#1B1B1B" transform="translate(678,482)"/>
<path d="M0 0 C0.66 0.33 1.32 0.66 2 1 C-0.82925785 3.93404518 -3.82048796 6.45639037 -7 9 C-8.35147138 10.31494512 -9.69112542 11.64264858 -11 13 C-9.63422544 8.71506993 -7.79318655 6.56854295 -4.375 3.6875 C-3.55773437 2.99011719 -2.74046875 2.29273438 -1.8984375 1.57421875 C-0.95871094 0.79498047 -0.95871094 0.79498047 0 0 Z " fill="#1F1F1F" transform="translate(705,480)"/>
<path d="M0 0 C0.99 0.66 1.98 1.32 3 2 C1.3767313 2.6708712 -0.24867578 3.33657029 -1.875 4 C-3.23238281 4.556875 -3.23238281 4.556875 -4.6171875 5.125 C-7 6 -7 6 -9 6 C-9 5.01 -9 4.02 -9 3 C-7.56879256 2.44191911 -6.12969645 1.90403538 -4.6875 1.375 C-3.88699219 1.07335937 -3.08648437 0.77171875 -2.26171875 0.4609375 C-1.51535156 0.30882812 -0.76898438 0.15671875 0 0 Z " fill="#1E1E1F" transform="translate(133,604)"/>
<path d="M0 0 C0.33 0 0.66 0 1 0 C1.33 4.95 1.66 9.9 2 15 C1.67 15 1.34 15 1 15 C-0.97153141 10.07117148 -1.26582874 6.2279653 -1 1 C-0.67 0.67 -0.34 0.34 0 0 Z " fill="#212122" transform="translate(487,502)"/>
<path d="M0 0 C3.90469752 2.60313168 4.06786357 4.49467394 5 9 C4.546875 11.2265625 4.546875 11.2265625 4 13 C3.32694982 11.39850114 2.66177773 9.79368971 2 8.1875 C1.62875 7.29417969 1.2575 6.40085937 0.875 5.48046875 C0 3 0 3 0 0 Z " fill="#1A1A1A" transform="translate(829,486)"/>
<path d="M0 0 C0.66 0.33 1.32 0.66 2 1 C-0.66666667 4.33333333 -3.33333333 7.66666667 -6 11 C-6 6.63204596 -5.77237852 6.25341007 -3 3.25 C-2.443125 2.63640625 -1.88625 2.0228125 -1.3125 1.390625 C-0.6628125 0.70226562 -0.6628125 0.70226562 0 0 Z " fill="#1B1B1B" transform="translate(587,481)"/>
<path d="M0 0 C3.91402949 1.26941497 5.79072873 2.51167694 8 6 C7.34 6.66 6.68 7.32 6 8 C1.125 3.375 1.125 3.375 0 0 Z " fill="#171818" transform="translate(620,479)"/>
<path d="M0 0 C0 0.66 0 1.32 0 2 C-7.425 1.01 -7.425 1.01 -15 0 C-15 -0.33 -15 -0.66 -15 -1 C-4.44191344 -2.51708428 -4.44191344 -2.51708428 0 0 Z " fill="#232223" transform="translate(463,491)"/>
<path d="M0 0 C0.99 0.33 1.98 0.66 3 1 C2.67 1.99 2.34 2.98 2 4 C-2.29 3.67 -6.58 3.34 -11 3 C-11 2.67 -11 2.34 -11 2 C-7.37 2 -3.74 2 0 2 C0 1.34 0 0.68 0 0 Z " fill="#242425" transform="translate(376,536)"/>
<path d="M0 0 C3.4375 1.3125 3.4375 1.3125 7 3 C7.33 3.99 7.66 4.98 8 6 C3 4 3 4 -2 2 C-1.34 1.34 -0.68 0.68 0 0 Z " fill="#1A1A1A" transform="translate(376,511)"/>
<path d="M0 0 C0.66 0.33 1.32 0.66 2 1 C2 2.65 2 4.3 2 6 C2.66 6.33 3.32 6.66 4 7 C2.35 7.33 0.7 7.66 -1 8 C-0.67 5.36 -0.34 2.72 0 0 Z " fill="#090909" transform="translate(817,544)"/>
<path d="M0 0 C0.99 0.33 1.98 0.66 3 1 C4.05404945 4.98196457 3.84098656 7.98195309 3 12 C2.67 12 2.34 12 2 12 C1.34 8.04 0.68 4.08 0 0 Z " fill="#212020" transform="translate(627,502)"/>
<path d="M0 0 C3.79588866 0.54226981 5.47211993 2.20127563 8 5 C7.67 5.66 7.34 6.32 7 7 C3.17053157 5.54744301 1.87949705 3.57104439 0 0 Z " fill="#1C1C1C" transform="translate(474,483)"/>
<path d="M0 0 C0.33 0 0.66 0 1 0 C1 2.64 1 5.28 1 8 C1.66 8 2.32 8 3 8 C3.33 8.99 3.66 9.98 4 11 C3.34 11.66 2.68 12.32 2 13 C0.21590198 9.93753253 -0.22880021 7.77920727 -0.125 4.25 C-0.10695313 3.45078125 -0.08890625 2.6515625 -0.0703125 1.828125 C-0.04710938 1.22484375 -0.02390625 0.6215625 0 0 Z " fill="#2A2A2A" transform="translate(109,590)"/>
<path d="M0 0 C0.33 0 0.66 0 1 0 C2.125 6.625 2.125 6.625 1 10 C0.01 10.33 -0.98 10.66 -2 11 C-1.34 7.37 -0.68 3.74 0 0 Z " fill="#202020" transform="translate(898,518)"/>
<path d="M0 0 C0 0.33 0 0.66 0 1 C-1.7015625 1.2165625 -1.7015625 1.2165625 -3.4375 1.4375 C-6.80777201 1.61171478 -6.80777201 1.61171478 -8 3 C-9.66617115 3.04063832 -11.33388095 3.042721 -13 3 C-9.21656826 -0.94792877 -5.07874402 -0.29300446 0 0 Z " fill="#0B0A0B" transform="translate(615,489)"/>
<path d="M0 0 C3.96 1.98 3.96 1.98 8 4 C7.01 4.66 6.02 5.32 5 6 C2.5 4.6875 2.5 4.6875 0 3 C0 2.01 0 1.02 0 0 Z " fill="#1C1C1C" transform="translate(355,485)"/>
<path d="M0 0 C0.78375 0.04125 1.5675 0.0825 2.375 0.125 C1.2303125 1.0221875 1.2303125 1.0221875 0.0625 1.9375 C-1.9733575 3.59459332 -3.8228279 5.22797674 -5.625 7.125 C-4.53409091 0.21590909 -4.53409091 0.21590909 0 0 Z " fill="#191919" transform="translate(357.625,466.875)"/>
<path d="M0 0 C0.66 0.33 1.32 0.66 2 1 C1.319375 1.61875 1.319375 1.61875 0.625 2.25 C-1.09686822 3.92669589 -1.09686822 3.92669589 -2 6.125 C-3 8 -3 8 -6 9 C-4.47291037 5.56404834 -2.40072955 2.88087546 0 0 Z " fill="#1C1C1C" transform="translate(341,458)"/>
<path d="M0 0 C0.66 0.99 1.32 1.98 2 3 C0.68 3.99 -0.64 4.98 -2 6 C-2.66 5.34 -3.32 4.68 -4 4 C-2.68 2.68 -1.36 1.36 0 0 Z " fill="#1A191A" transform="translate(173,523)"/>
<path d="M0 0 C1.98 0.66 3.96 1.32 6 2 C6 2.99 6 3.98 6 5 C4.02 4.34 2.04 3.68 0 3 C0 2.01 0 1.02 0 0 Z " fill="#19191A" transform="translate(467,478)"/>
<path d="M0 0 C4 1 4 1 4 1 Z " fill="#505150" transform="translate(912,449)"/>
<path d="M0 0 C3 1 3 1 3 1 Z " fill="#343333" transform="translate(459,536)"/>
<path d="M0 0 C3 1 3 1 3 1 Z " fill="#353636" transform="translate(750,528)"/>
<path d="M0 0 C0.66 0.66 1.32 1.32 2 2 C1.34 2 0.68 2 0 2 C0 1.34 0 0.68 0 0 Z " fill="#3D3B3A" transform="translate(592,475)"/>
<path d="M0 0 C3 1 3 1 3 1 Z " fill="#3F3E3D" transform="translate(864,475)"/>
<path d="M0 0 C2 1 2 1 2 1 Z " fill="#393939" transform="translate(227,582)"/>
<path d="" fill="#393737" transform="translate(0,0)"/>
<path d="M0 0 C2 1 2 1 2 1 Z " fill="#343536" transform="translate(744,528)"/>
<path d="M0 0 C2 1 2 1 2 1 Z " fill="#343535" transform="translate(485,528)"/>
<path d="M0 0 C2 1 2 1 2 1 Z " fill="#343535" transform="translate(479,528)"/>
<path d="M0 0 C2 1 2 1 2 1 Z " fill="#323132" transform="translate(472,528)"/>
<path d="" fill="#363535" transform="translate(0,0)"/>
<path d="" fill="#323131" transform="translate(0,0)"/>
<path d="M0 0 C2 1 2 1 2 1 Z " fill="#363736" transform="translate(779,502)"/>
<path d="M0 0 C2 1 2 1 2 1 Z " fill="#333332" transform="translate(618,494)"/>
<path d="M0 0 C2 1 2 1 2 1 Z " fill="#353434" transform="translate(878,492)"/>
<path d="" fill="#363434" transform="translate(0,0)"/>
<path d="M0 0 C2 1 2 1 2 1 Z " fill="#393938" transform="translate(516,481)"/>
<path d="" fill="#838484" transform="translate(0,0)"/>
<path d="" fill="#4F4F4E" transform="translate(0,0)"/>
<path d="" fill="#4B4D4C" transform="translate(0,0)"/>
<path d="" fill="#3D3C3C" transform="translate(0,0)"/>
<path d="" fill="#383739" transform="translate(0,0)"/>
<path d="" fill="#393937" transform="translate(0,0)"/>
<path d="" fill="#3D3B3E" transform="translate(0,0)"/>
<path d="" fill="#383736" transform="translate(0,0)"/>
<path d="" fill="#383737" transform="translate(0,0)"/>
<path d="" fill="#3F3F3F" transform="translate(0,0)"/>
<path d="" fill="#404040" transform="translate(0,0)"/>
<path d="" fill="#414244" transform="translate(0,0)"/>
<path d="" fill="#403F40" transform="translate(0,0)"/>
<path d="" fill="#434242" transform="translate(0,0)"/>
<path d="" fill="#3F403E" transform="translate(0,0)"/>
<path d="" fill="#40403F" transform="translate(0,0)"/>
<path d="" fill="#3B3D3C" transform="translate(0,0)"/>
<path d="" fill="#393636" transform="translate(0,0)"/>
<path d="" fill="#3B3A3A" transform="translate(0,0)"/>
<path d="" fill="#3D413F" transform="translate(0,0)"/>
<path d="" fill="#3F3F3F" transform="translate(0,0)"/>
<path d="" fill="#403D3E" transform="translate(0,0)"/>
<path d="" fill="#3C3C3A" transform="translate(0,0)"/>
<path d="" fill="#3C3A3B" transform="translate(0,0)"/>
<path d="" fill="#3C3A3D" transform="translate(0,0)"/>
<path d="" fill="#413F3D" transform="translate(0,0)"/>
<path d="" fill="#3E3C3E" transform="translate(0,0)"/>
<path d="" fill="#393636" transform="translate(0,0)"/>
<path d="" fill="#3B3C3C" transform="translate(0,0)"/>
<path d="" fill="#383836" transform="translate(0,0)"/>
<path d="" fill="#383839" transform="translate(0,0)"/>
<path d="" fill="#3A373C" transform="translate(0,0)"/>
<path d="" fill="#3A3A3A" transform="translate(0,0)"/>
<path d="" fill="#3D3E3F" transform="translate(0,0)"/>
<path d="" fill="#383939" transform="translate(0,0)"/>
<path d="" fill="#3A3A39" transform="translate(0,0)"/>
<path d="" fill="#363835" transform="translate(0,0)"/>
<path d="" fill="#3B3A3B" transform="translate(0,0)"/>
<path d="" fill="#363635" transform="translate(0,0)"/>
<path d="" fill="#363636" transform="translate(0,0)"/>
<path d="" fill="#333332" transform="translate(0,0)"/>
<path d="" fill="#313233" transform="translate(0,0)"/>
<path d="" fill="#343234" transform="translate(0,0)"/>
<path d="" fill="#333233" transform="translate(0,0)"/>
<path d="" fill="#383637" transform="translate(0,0)"/>
<path d="" fill="#353435" transform="translate(0,0)"/>
<path d="" fill="#373639" transform="translate(0,0)"/>
<path d="" fill="#393738" transform="translate(0,0)"/>
<path d="" fill="#333134" transform="translate(0,0)"/>
<path d="" fill="#2F3030" transform="translate(0,0)"/>
<path d="" fill="#373736" transform="translate(0,0)"/>
<path d="" fill="#383837" transform="translate(0,0)"/>
<path d="" fill="#333533" transform="translate(0,0)"/>
<path d="" fill="#333433" transform="translate(0,0)"/>
<path d="" fill="#333235" transform="translate(0,0)"/>
<path d="" fill="#36383A" transform="translate(0,0)"/>
<path d="" fill="#363536" transform="translate(0,0)"/>
<path d="" fill="#333533" transform="translate(0,0)"/>
<path d="" fill="#363635" transform="translate(0,0)"/>
<path d="" fill="#383635" transform="translate(0,0)"/>
<path d="" fill="#3A3A39" transform="translate(0,0)"/>
<path d="" fill="#353537" transform="translate(0,0)"/>
<path d="" fill="#353235" transform="translate(0,0)"/>
<path d="" fill="#353635" transform="translate(0,0)"/>
<path d="" fill="#323331" transform="translate(0,0)"/>
<path d="" fill="#323332" transform="translate(0,0)"/>
<path d="" fill="#303432" transform="translate(0,0)"/>
<path d="" fill="#333232" transform="translate(0,0)"/>
<path d="" fill="#353436" transform="translate(0,0)"/>
<path d="" fill="#393839" transform="translate(0,0)"/>
<path d="" fill="#343534" transform="translate(0,0)"/>
<path d="" fill="#353535" transform="translate(0,0)"/>
<path d="" fill="#343435" transform="translate(0,0)"/>
<path d="" fill="#363334" transform="translate(0,0)"/>
<path d="" fill="#2E2F30" transform="translate(0,0)"/>
<path d="" fill="#353636" transform="translate(0,0)"/>
<path d="" fill="#333333" transform="translate(0,0)"/>
<path d="" fill="#353134" transform="translate(0,0)"/>
<path d="" fill="#363333" transform="translate(0,0)"/>
<path d="" fill="#333432" transform="translate(0,0)"/>
<path d="" fill="#2E2C2D" transform="translate(0,0)"/>
<path d="" fill="#363838" transform="translate(0,0)"/>
<path d="" fill="#363636" transform="translate(0,0)"/>
<path d="" fill="#353433" transform="translate(0,0)"/>
<path d="" fill="#333433" transform="translate(0,0)"/>
<path d="" fill="#363435" transform="translate(0,0)"/>
<path d="" fill="#343635" transform="translate(0,0)"/>
<path d="" fill="#333633" transform="translate(0,0)"/>
<path d="" fill="#343434" transform="translate(0,0)"/>
<path d="" fill="#363635" transform="translate(0,0)"/>
<path d="" fill="#353535" transform="translate(0,0)"/>
<path d="" fill="#383637" transform="translate(0,0)"/>
<path d="" fill="#353434" transform="translate(0,0)"/>
<path d="" fill="#353637" transform="translate(0,0)"/>
<path d="" fill="#373636" transform="translate(0,0)"/>
<path d="" fill="#343334" transform="translate(0,0)"/>
<path d="" fill="#343333" transform="translate(0,0)"/>
<path d="" fill="#383737" transform="translate(0,0)"/>
<path d="" fill="#373536" transform="translate(0,0)"/>
<path d="" fill="#363435" transform="translate(0,0)"/>
<path d="" fill="#353533" transform="translate(0,0)"/>
<path d="" fill="#373536" transform="translate(0,0)"/>
<path d="" fill="#353535" transform="translate(0,0)"/>
<path d="" fill="#343333" transform="translate(0,0)"/>
<path d="" fill="#353434" transform="translate(0,0)"/>
<path d="" fill="#353737" transform="translate(0,0)"/>
<path d="" fill="#373837" transform="translate(0,0)"/>
<path d="" fill="#353736" transform="translate(0,0)"/>
<path d="" fill="#363434" transform="translate(0,0)"/>
<path d="" fill="#373638" transform="translate(0,0)"/>
<path d="" fill="#333435" transform="translate(0,0)"/>
<path d="" fill="#2E2E2E" transform="translate(0,0)"/>
<path d="" fill="#302F2F" transform="translate(0,0)"/>
<path d="" fill="#3E3E3C" transform="translate(0,0)"/>
<path d="" fill="#3E3D3D" transform="translate(0,0)"/>
<path d="" fill="#383737" transform="translate(0,0)"/>
<path d="" fill="#373734" transform="translate(0,0)"/>
<path d="" fill="#404241" transform="translate(0,0)"/>
<path d="" fill="#3D3D3B" transform="translate(0,0)"/>
<path d="" fill="#353837" transform="translate(0,0)"/>
<path d="" fill="#383635" transform="translate(0,0)"/>
<path d="" fill="#3D3C3C" transform="translate(0,0)"/>
<path d="" fill="#3D3D3B" transform="translate(0,0)"/>
<path d="" fill="#3F3D3F" transform="translate(0,0)"/>
<path d="" fill="#3E393B" transform="translate(0,0)"/>
<path d="" fill="#3B3939" transform="translate(0,0)"/>
<path d="" fill="#393A39" transform="translate(0,0)"/>
<path d="" fill="#3B3C3B" transform="translate(0,0)"/>
<path d="" fill="#414040" transform="translate(0,0)"/>
<path d="" fill="#3F3D3D" transform="translate(0,0)"/>
<path d="" fill="#3B3D3A" transform="translate(0,0)"/>
<path d="" fill="#494749" transform="translate(0,0)"/>
<path d="" fill="#3B3B3C" transform="translate(0,0)"/>
<path d="" fill="#3C3A3A" transform="translate(0,0)"/>
<path d="" fill="#3A3C3A" transform="translate(0,0)"/>
<path d="" fill="#3E3E3D" transform="translate(0,0)"/>
<path d="" fill="#424443" transform="translate(0,0)"/>
<path d="" fill="#3E3E3B" transform="translate(0,0)"/>
<path d="" fill="#393738" transform="translate(0,0)"/>
<path d="" fill="#353634" transform="translate(0,0)"/>
<path d="" fill="#343435" transform="translate(0,0)"/>
<path d="" fill="#3B3B3B" transform="translate(0,0)"/>
<path d="" fill="#3C3B3B" transform="translate(0,0)"/>
<path d="" fill="#3D3C3C" transform="translate(0,0)"/>
<path d="" fill="#3B3E3C" transform="translate(0,0)"/>
<path d="" fill="#50504F" transform="translate(0,0)"/>
<path d="" fill="#504E4E" transform="translate(0,0)"/>
<path d="" fill="#4B4C4A" transform="translate(0,0)"/>
<path d="" fill="#434441" transform="translate(0,0)"/>
<path d="" fill="#413F41" transform="translate(0,0)"/>
<path d="" fill="#3E3E3C" transform="translate(0,0)"/>
<path d="" fill="#3E3E3E" transform="translate(0,0)"/>
<path d="" fill="#3D3E3E" transform="translate(0,0)"/>
<path d="" fill="#424240" transform="translate(0,0)"/>
<path d="" fill="#4A4948" transform="translate(0,0)"/>
<path d="" fill="#474746" transform="translate(0,0)"/>
<path d="" fill="#454344" transform="translate(0,0)"/>
<path d="" fill="#424342" transform="translate(0,0)"/>
<path d="" fill="#434342" transform="translate(0,0)"/>
<path d="" fill="#434444" transform="translate(0,0)"/>
</svg>